# WaveFront *.obj file (generated by Autodesk ATF)

mtllib dual_color.mtl

g Body1

v 15.000000 -41.000000 0.000000
v -15.000000 -41.000000 0.000000
v -14.972633 -40.094323 0.000000
v -14.890633 -39.191950 0.000000
v -14.754299 -38.296174 0.000000
v -14.564127 -37.410265 0.000000
v -14.320813 -36.537454 0.000000
v -14.025244 -35.680927 0.000000
v -13.678498 -34.843808 0.000000
v -13.281840 -34.029152 0.000000
v -12.836719 -33.239933 0.000000
v -12.344758 -32.479029 0.000000
v -11.807752 -31.749217 0.000000
v -11.227661 -31.053160 0.000000
v -10.606602 -30.393398 0.000000
v -9.946840 -29.772339 0.000000
v -9.250783 -29.192248 0.000000
v -8.520971 -28.655242 0.000000
v -7.760067 -28.163281 0.000000
v -6.970848 -27.718160 0.000000
v -6.156192 -27.321502 0.000000
v -5.319073 -26.974756 0.000000
v -4.462546 -26.679187 0.000000
v -3.589735 -26.435873 0.000000
v -2.703826 -26.245701 0.000000
v -1.808050 -26.109367 0.000000
v -0.905677 -26.027367 0.000000
v -0.000000 -26.000000 0.000000
v 0.905677 -26.027367 0.000000
v 1.808050 -26.109367 0.000000
v 2.703826 -26.245701 0.000000
v 3.589735 -26.435873 0.000000
v 4.462546 -26.679187 0.000000
v 5.319073 -26.974756 0.000000
v 6.156192 -27.321502 0.000000
v 6.970848 -27.718160 0.000000
v 7.760067 -28.163281 0.000000
v 8.520971 -28.655242 0.000000
v 9.250783 -29.192248 0.000000
v 9.946840 -29.772339 0.000000
v 10.606602 -30.393398 0.000000
v 11.227661 -31.053160 0.000000
v 11.807752 -31.749217 0.000000
v 12.344758 -32.479029 0.000000
v 12.836719 -33.239933 0.000000
v 13.281840 -34.029152 0.000000
v 13.678498 -34.843808 0.000000
v 14.025244 -35.680927 0.000000
v 14.320813 -36.537454 0.000000
v 14.564127 -37.410265 0.000000
v 14.754299 -38.296174 0.000000
v 14.890633 -39.191950 0.000000
v 14.972633 -40.094323 0.000000
v 15.000000 -41.000000 10.000000
v 14.972633 -41.905677 10.000000
v 14.890633 -42.808050 10.000000
v 14.754299 -43.703826 10.000000
v 14.564127 -44.589735 10.000000
v 14.320813 -45.462546 10.000000
v 14.025244 -46.319073 10.000000
v 13.678498 -47.156192 10.000000
v 13.281840 -47.970848 10.000000
v 12.836719 -48.760067 10.000000
v 12.344758 -49.520971 10.000000
v 11.807752 -50.250783 10.000000
v 11.227661 -50.946840 10.000000
v 10.606602 -51.606602 10.000000
v 9.946840 -52.227661 10.000000
v 9.250783 -52.807752 10.000000
v 8.520971 -53.344758 10.000000
v 7.760067 -53.836719 10.000000
v 6.970848 -54.281840 10.000000
v 6.156192 -54.678498 10.000000
v 5.319073 -55.025244 10.000000
v 4.462546 -55.320813 10.000000
v 3.589735 -55.564127 10.000000
v 2.703826 -55.754299 10.000000
v 1.808050 -55.890633 10.000000
v 0.905677 -55.972633 10.000000
v -0.000000 -56.000000 10.000000
v -0.905677 -55.972633 10.000000
v -1.808050 -55.890633 10.000000
v -2.703826 -55.754299 10.000000
v -3.589735 -55.564127 10.000000
v -4.462546 -55.320813 10.000000
v -5.319073 -55.025244 10.000000
v -6.156192 -54.678498 10.000000
v -6.970848 -54.281840 10.000000
v -7.760067 -53.836719 10.000000
v -8.520971 -53.344758 10.000000
v -9.250783 -52.807752 10.000000
v -9.946840 -52.227661 10.000000
v -10.606602 -51.606602 10.000000
v -11.227661 -50.946840 10.000000
v -11.807752 -50.250783 10.000000
v -12.344758 -49.520971 10.000000
v -12.836719 -48.760067 10.000000
v -13.281840 -47.970848 10.000000
v -13.678498 -47.156192 10.000000
v -14.025244 -46.319073 10.000000
v -14.320813 -45.462546 10.000000
v -14.564127 -44.589735 10.000000
v -14.754299 -43.703826 10.000000
v -14.890633 -42.808050 10.000000
v -14.972633 -41.905677 10.000000
v -15.000000 -41.000000 10.000000
v -14.972633 -41.905677 0.000000
v -14.890633 -42.808050 0.000000
v -14.754299 -43.703826 0.000000
v -14.564127 -44.589735 0.000000
v -14.320813 -45.462546 0.000000
v -14.025244 -46.319073 0.000000
v -13.678498 -47.156192 0.000000
v -13.281840 -47.970848 0.000000
v -12.836719 -48.760067 0.000000
v -12.344758 -49.520971 0.000000
v -11.807752 -50.250783 0.000000
v -11.227661 -50.946840 0.000000
v -10.606602 -51.606602 0.000000
v -9.946840 -52.227661 0.000000
v -9.250783 -52.807752 0.000000
v -8.520971 -53.344758 0.000000
v -7.760067 -53.836719 0.000000
v -6.970848 -54.281840 0.000000
v -6.156192 -54.678498 0.000000
v -5.319073 -55.025244 0.000000
v -4.462546 -55.320813 0.000000
v -3.589735 -55.564127 0.000000
v -2.703826 -55.754299 0.000000
v -1.808050 -55.890633 0.000000
v -0.905677 -55.972633 0.000000
v 0.000000 -56.000000 0.000000
v 0.905677 -55.972633 0.000000
v 1.808050 -55.890633 0.000000
v 2.703826 -55.754299 0.000000
v 3.589735 -55.564127 0.000000
v 4.462546 -55.320813 0.000000
v 5.319073 -55.025244 0.000000
v 6.156192 -54.678498 0.000000
v 6.970848 -54.281840 0.000000
v 7.760067 -53.836719 0.000000
v 8.520971 -53.344758 0.000000
v 9.250783 -52.807752 0.000000
v 9.946840 -52.227661 0.000000
v 10.606602 -51.606602 0.000000
v 11.227661 -50.946840 0.000000
v 11.807752 -50.250783 0.000000
v 12.344758 -49.520971 0.000000
v 12.836719 -48.760067 0.000000
v 13.281840 -47.970848 0.000000
v 13.678498 -47.156192 0.000000
v 14.025244 -46.319073 0.000000
v 14.320813 -45.462546 0.000000
v 14.564127 -44.589735 0.000000
v 14.754299 -43.703826 0.000000
v 14.890633 -42.808050 0.000000
v 14.972633 -41.905677 0.000000
v -14.972633 -40.094323 10.000000
v -14.890633 -39.191950 10.000000
v -14.754299 -38.296174 10.000000
v -14.564127 -37.410265 10.000000
v -14.320813 -36.537454 10.000000
v -14.025244 -35.680927 10.000000
v -13.678498 -34.843808 10.000000
v -13.281840 -34.029152 10.000000
v -12.836719 -33.239933 10.000000
v -12.344758 -32.479029 10.000000
v -11.807752 -31.749217 10.000000
v -11.227661 -31.053160 10.000000
v -10.606602 -30.393398 10.000000
v -9.946840 -29.772339 10.000000
v -9.250783 -29.192248 10.000000
v -8.520971 -28.655242 10.000000
v -7.760067 -28.163281 10.000000
v -6.970848 -27.718160 10.000000
v -6.156192 -27.321502 10.000000
v -5.319073 -26.974756 10.000000
v -4.462546 -26.679187 10.000000
v -3.589735 -26.435873 10.000000
v -2.703826 -26.245701 10.000000
v -1.808050 -26.109367 10.000000
v -0.905677 -26.027367 10.000000
v 0.000000 -26.000000 10.000000
v 0.905677 -26.027367 10.000000
v 1.808050 -26.109367 10.000000
v 2.703826 -26.245701 10.000000
v 3.589735 -26.435873 10.000000
v 4.462546 -26.679187 10.000000
v 5.319073 -26.974756 10.000000
v 6.156192 -27.321502 10.000000
v 6.970848 -27.718160 10.000000
v 7.760067 -28.163281 10.000000
v 8.520971 -28.655242 10.000000
v 9.250783 -29.192248 10.000000
v 9.946840 -29.772339 10.000000
v 10.606602 -30.393398 10.000000
v 11.227661 -31.053160 10.000000
v 11.807752 -31.749217 10.000000
v 12.344758 -32.479029 10.000000
v 12.836719 -33.239933 10.000000
v 13.281840 -34.029152 10.000000
v 13.678498 -34.843808 10.000000
v 14.025244 -35.680927 10.000000
v 14.320813 -36.537454 10.000000
v 14.564127 -37.410265 10.000000
v 14.754299 -38.296174 10.000000
v 14.890633 -39.191950 10.000000
v 14.972633 -40.094323 10.000000
vt -1.500000 0.000000 0.000000
vt 1.500000 0.000000 0.000000
vt -1.497263 0.090568 0.000000
vt 1.497263 0.090568 0.000000
vt -1.489063 0.180805 0.000000
vt 1.489063 0.180805 0.000000
vt -1.475430 0.270383 0.000000
vt 1.475430 0.270383 0.000000
vt -1.456413 0.358973 0.000000
vt 1.456413 0.358973 0.000000
vt -1.432081 0.446255 0.000000
vt 1.432081 0.446255 0.000000
vt -1.402524 0.531907 0.000000
vt 1.402524 0.531907 0.000000
vt -1.367850 0.615619 0.000000
vt 1.367850 0.615619 0.000000
vt -1.328184 0.697085 0.000000
vt 1.328184 0.697085 0.000000
vt -1.283672 0.776007 0.000000
vt 1.283672 0.776007 0.000000
vt -1.234476 0.852097 0.000000
vt 1.234476 0.852097 0.000000
vt -1.180775 0.925078 0.000000
vt 1.180775 0.925078 0.000000
vt -1.122766 0.994684 0.000000
vt 1.122766 0.994684 0.000000
vt -1.060660 1.060660 0.000000
vt 1.060660 1.060660 0.000000
vt -0.994684 1.122766 0.000000
vt 0.994684 1.122766 0.000000
vt -0.925078 1.180775 0.000000
vt 0.925078 1.180775 0.000000
vt -0.852097 1.234476 0.000000
vt 0.852097 1.234476 0.000000
vt -0.776007 1.283672 0.000000
vt 0.776007 1.283672 0.000000
vt -0.697085 1.328184 0.000000
vt 0.697085 1.328184 0.000000
vt -0.615619 1.367850 0.000000
vt 0.615619 1.367850 0.000000
vt -0.531907 1.402524 0.000000
vt 0.531907 1.402524 0.000000
vt -0.446255 1.432081 0.000000
vt 0.446255 1.432081 0.000000
vt -0.358973 1.456413 0.000000
vt 0.358973 1.456413 0.000000
vt -0.270383 1.475430 0.000000
vt 0.270383 1.475430 0.000000
vt -0.180805 1.489063 0.000000
vt 0.180805 1.489063 0.000000
vt -0.090568 1.497263 0.000000
vt 0.090568 1.497263 0.000000
vt 0.000000 1.500000 0.000000
vt 0.500000 0.000000 0.000000
vt -0.500000 0.000000 0.000000
vt 0.500000 -0.090623 0.000000
vt -0.500000 -0.090623 0.000000
vt 0.500000 -0.181246 0.000000
vt -0.500000 -0.181246 0.000000
vt 0.500000 -0.271869 0.000000
vt -0.500000 -0.271869 0.000000
vt 0.500000 -0.362491 0.000000
vt -0.500000 -0.362491 0.000000
vt 0.500000 -0.453114 0.000000
vt -0.500000 -0.453114 0.000000
vt 0.500000 -0.543737 0.000000
vt -0.500000 -0.543737 0.000000
vt 0.500000 -0.634360 0.000000
vt -0.500000 -0.634360 0.000000
vt 0.500000 -0.724983 0.000000
vt -0.500000 -0.724983 0.000000
vt 0.500000 -0.815606 0.000000
vt -0.500000 -0.815606 0.000000
vt 0.500000 -0.906229 0.000000
vt -0.500000 -0.906229 0.000000
vt 0.500000 -0.996852 0.000000
vt -0.500000 -0.996852 0.000000
vt 0.500000 -1.087474 0.000000
vt -0.500000 -1.087474 0.000000
vt 0.500000 -1.178097 0.000000
vt -0.500000 -1.178097 0.000000
vt 0.500000 -1.268720 0.000000
vt -0.500000 -1.268720 0.000000
vt 0.500000 -1.359343 0.000000
vt -0.500000 -1.359343 0.000000
vt 0.500000 -1.449966 0.000000
vt -0.500000 -1.449966 0.000000
vt 0.500000 -1.540589 0.000000
vt -0.500000 -1.540589 0.000000
vt 0.500000 -1.631212 0.000000
vt -0.500000 -1.631212 0.000000
vt 0.500000 -1.721834 0.000000
vt -0.500000 -1.721834 0.000000
vt 0.500000 -1.812457 0.000000
vt -0.500000 -1.812457 0.000000
vt 0.500000 -1.903080 0.000000
vt -0.500000 -1.903080 0.000000
vt 0.500000 -1.993703 0.000000
vt -0.500000 -1.993703 0.000000
vt 0.500000 -2.084326 0.000000
vt -0.500000 -2.084326 0.000000
vt 0.500000 -2.174949 0.000000
vt -0.500000 -2.174949 0.000000
vt 0.500000 -2.265572 0.000000
vt -0.500000 -2.265572 0.000000
vt 0.500000 -2.356194 0.000000
vt -0.500000 -2.356194 0.000000
vt 0.500000 -2.446817 0.000000
vt -0.500000 -2.446817 0.000000
vt 0.500000 -2.537440 0.000000
vt -0.500000 -2.537440 0.000000
vt 0.500000 -2.628063 0.000000
vt -0.500000 -2.628063 0.000000
vt 0.500000 -2.718686 0.000000
vt -0.500000 -2.718686 0.000000
vt 0.500000 -2.809309 0.000000
vt -0.500000 -2.809309 0.000000
vt 0.500000 -2.899932 0.000000
vt -0.500000 -2.899932 0.000000
vt 0.500000 -2.990555 0.000000
vt -0.500000 -2.990555 0.000000
vt 0.500000 -3.081177 0.000000
vt -0.500000 -3.081177 0.000000
vt 0.500000 -3.171800 0.000000
vt -0.500000 -3.171800 0.000000
vt 0.500000 -3.262423 0.000000
vt -0.500000 -3.262423 0.000000
vt 0.500000 -3.353046 0.000000
vt -0.500000 -3.353046 0.000000
vt 0.500000 -3.443669 0.000000
vt -0.500000 -3.443669 0.000000
vt 0.500000 -3.534292 0.000000
vt -0.500000 -3.534292 0.000000
vt 0.500000 -3.624915 0.000000
vt -0.500000 -3.624915 0.000000
vt 0.500000 -3.715537 0.000000
vt -0.500000 -3.715537 0.000000
vt 0.500000 -3.806160 0.000000
vt -0.500000 -3.806160 0.000000
vt 0.500000 -3.896783 0.000000
vt -0.500000 -3.896783 0.000000
vt 0.500000 -3.987406 0.000000
vt -0.500000 -3.987406 0.000000
vt 0.500000 -4.078029 0.000000
vt -0.500000 -4.078029 0.000000
vt 0.500000 -4.168652 0.000000
vt -0.500000 -4.168652 0.000000
vt 0.500000 -4.259275 0.000000
vt -0.500000 -4.259275 0.000000
vt 0.500000 -4.349898 0.000000
vt -0.500000 -4.349898 0.000000
vt 0.500000 -4.440520 0.000000
vt -0.500000 -4.440520 0.000000
vt 0.500000 -4.531143 0.000000
vt -0.500000 -4.531143 0.000000
vt 0.500000 -4.621766 0.000000
vt -0.500000 -4.621766 0.000000
vt 0.500000 -4.712389 0.000000
vt -0.500000 -4.712389 0.000000
vt 1.500000 0.000000 0.000000
vt -1.500000 0.000000 0.000000
vt 1.497263 -0.090568 0.000000
vt -1.497263 -0.090568 0.000000
vt 1.489063 -0.180805 0.000000
vt -1.489063 -0.180805 0.000000
vt 1.475430 -0.270383 0.000000
vt -1.475430 -0.270383 0.000000
vt 1.456413 -0.358973 0.000000
vt -1.456413 -0.358973 0.000000
vt 1.432081 -0.446255 0.000000
vt -1.432081 -0.446255 0.000000
vt 1.402524 -0.531907 0.000000
vt -1.402524 -0.531907 0.000000
vt 1.367850 -0.615619 0.000000
vt -1.367850 -0.615619 0.000000
vt 1.328184 -0.697085 0.000000
vt -1.328184 -0.697085 0.000000
vt 1.283672 -0.776007 0.000000
vt -1.283672 -0.776007 0.000000
vt 1.234476 -0.852097 0.000000
vt -1.234476 -0.852097 0.000000
vt 1.180775 -0.925078 0.000000
vt -1.180775 -0.925078 0.000000
vt 1.122766 -0.994684 0.000000
vt -1.122766 -0.994684 0.000000
vt 1.060660 -1.060660 0.000000
vt -1.060660 -1.060660 0.000000
vt 0.994684 -1.122766 0.000000
vt -0.994684 -1.122766 0.000000
vt 0.925078 -1.180775 0.000000
vt -0.925078 -1.180775 0.000000
vt 0.852097 -1.234476 0.000000
vt -0.852097 -1.234476 0.000000
vt 0.776007 -1.283672 0.000000
vt -0.776007 -1.283672 0.000000
vt 0.697085 -1.328184 0.000000
vt -0.697085 -1.328184 0.000000
vt 0.615619 -1.367850 0.000000
vt -0.615619 -1.367850 0.000000
vt 0.531907 -1.402524 0.000000
vt -0.531907 -1.402524 0.000000
vt 0.446255 -1.432081 0.000000
vt -0.446255 -1.432081 0.000000
vt 0.358973 -1.456413 0.000000
vt -0.358973 -1.456413 0.000000
vt 0.270383 -1.475430 0.000000
vt -0.270383 -1.475430 0.000000
vt 0.180805 -1.489063 0.000000
vt -0.180805 -1.489063 0.000000
vt 0.090568 -1.497263 0.000000
vt -0.090568 -1.497263 0.000000
vt -0.000000 -1.500000 0.000000
vt -0.500000 0.000000 0.000000
vt 0.500000 0.000000 0.000000
vt -0.500000 0.090623 0.000000
vt 0.500000 0.090623 0.000000
vt -0.500000 0.181246 0.000000
vt 0.500000 0.181246 0.000000
vt -0.500000 0.271869 0.000000
vt 0.500000 0.271869 0.000000
vt -0.500000 0.362491 0.000000
vt 0.500000 0.362491 0.000000
vt -0.500000 0.453114 0.000000
vt 0.500000 0.453114 0.000000
vt -0.500000 0.543737 0.000000
vt 0.500000 0.543737 0.000000
vt -0.500000 0.634360 0.000000
vt 0.500000 0.634360 0.000000
vt -0.500000 0.724983 0.000000
vt 0.500000 0.724983 0.000000
vt -0.500000 0.815606 0.000000
vt 0.500000 0.815606 0.000000
vt -0.500000 0.906229 0.000000
vt 0.500000 0.906229 0.000000
vt -0.500000 0.996852 0.000000
vt 0.500000 0.996852 0.000000
vt -0.500000 1.087474 0.000000
vt 0.500000 1.087474 0.000000
vt -0.500000 1.178097 0.000000
vt 0.500000 1.178097 0.000000
vt -0.500000 1.268720 0.000000
vt 0.500000 1.268720 0.000000
vt -0.500000 1.359343 0.000000
vt 0.500000 1.359343 0.000000
vt -0.500000 1.449966 0.000000
vt 0.500000 1.449966 0.000000
vt -0.500000 1.540589 0.000000
vt 0.500000 1.540589 0.000000
vt -0.500000 1.631212 0.000000
vt 0.500000 1.631212 0.000000
vt -0.500000 1.721834 0.000000
vt 0.500000 1.721834 0.000000
vt -0.500000 1.812457 0.000000
vt 0.500000 1.812457 0.000000
vt -0.500000 1.903080 0.000000
vt 0.500000 1.903080 0.000000
vt -0.500000 1.993703 0.000000
vt 0.500000 1.993703 0.000000
vt -0.500000 2.084326 0.000000
vt 0.500000 2.084326 0.000000
vt -0.500000 2.174949 0.000000
vt 0.500000 2.174949 0.000000
vt -0.500000 2.265572 0.000000
vt 0.500000 2.265572 0.000000
vt -0.500000 2.356194 0.000000
vt 0.500000 2.356194 0.000000
vt -0.500000 2.446817 0.000000
vt 0.500000 2.446817 0.000000
vt -0.500000 2.537440 0.000000
vt 0.500000 2.537440 0.000000
vt -0.500000 2.628063 0.000000
vt 0.500000 2.628063 0.000000
vt -0.500000 2.718686 0.000000
vt 0.500000 2.718686 0.000000
vt -0.500000 2.809309 0.000000
vt 0.500000 2.809309 0.000000
vt -0.500000 2.899932 0.000000
vt 0.500000 2.899932 0.000000
vt -0.500000 2.990555 0.000000
vt 0.500000 2.990555 0.000000
vt -0.500000 3.081177 0.000000
vt 0.500000 3.081177 0.000000
vt -0.500000 3.171800 0.000000
vt 0.500000 3.171800 0.000000
vt -0.500000 3.262423 0.000000
vt 0.500000 3.262423 0.000000
vt -0.500000 3.353046 0.000000
vt 0.500000 3.353046 0.000000
vt -0.500000 3.443669 0.000000
vt 0.500000 3.443669 0.000000
vt -0.500000 3.534292 0.000000
vt 0.500000 3.534292 0.000000
vt -0.500000 3.624915 0.000000
vt 0.500000 3.624915 0.000000
vt -0.500000 3.715537 0.000000
vt 0.500000 3.715537 0.000000
vt -0.500000 3.806160 0.000000
vt 0.500000 3.806160 0.000000
vt -0.500000 3.896783 0.000000
vt 0.500000 3.896783 0.000000
vt -0.500000 3.987406 0.000000
vt 0.500000 3.987406 0.000000
vt -0.500000 4.078029 0.000000
vt 0.500000 4.078029 0.000000
vt -0.500000 4.168652 0.000000
vt 0.500000 4.168652 0.000000
vt -0.500000 4.259275 0.000000
vt 0.500000 4.259275 0.000000
vt -0.500000 4.349898 0.000000
vt 0.500000 4.349898 0.000000
vt -0.500000 4.440520 0.000000
vt 0.500000 4.440520 0.000000
vt -0.500000 4.531143 0.000000
vt 0.500000 4.531143 0.000000
vt -0.500000 4.621766 0.000000
vt 0.500000 4.621766 0.000000
vt -0.500000 4.712389 0.000000
vt 0.500000 4.712389 0.000000
vt 1.500000 0.000000 0.000000
vt -1.500000 0.000000 0.000000
vt 1.497263 -0.090568 0.000000
vt -1.497263 -0.090568 0.000000
vt 1.489063 -0.180805 0.000000
vt -1.489063 -0.180805 0.000000
vt 1.475430 -0.270383 0.000000
vt -1.475430 -0.270383 0.000000
vt 1.456413 -0.358973 0.000000
vt -1.456413 -0.358973 0.000000
vt 1.432081 -0.446255 0.000000
vt -1.432081 -0.446255 0.000000
vt 1.402524 -0.531907 0.000000
vt -1.402524 -0.531907 0.000000
vt 1.367850 -0.615619 0.000000
vt -1.367850 -0.615619 0.000000
vt 1.328184 -0.697085 0.000000
vt -1.328184 -0.697085 0.000000
vt 1.283672 -0.776007 0.000000
vt -1.283672 -0.776007 0.000000
vt 1.234476 -0.852097 0.000000
vt -1.234476 -0.852097 0.000000
vt 1.180775 -0.925078 0.000000
vt -1.180775 -0.925078 0.000000
vt 1.122766 -0.994684 0.000000
vt -1.122766 -0.994684 0.000000
vt 1.060660 -1.060660 0.000000
vt -1.060660 -1.060660 0.000000
vt 0.994684 -1.122766 0.000000
vt -0.994684 -1.122766 0.000000
vt 0.925078 -1.180775 0.000000
vt -0.925078 -1.180775 0.000000
vt 0.852097 -1.234476 0.000000
vt -0.852097 -1.234476 0.000000
vt 0.776007 -1.283672 0.000000
vt -0.776007 -1.283672 0.000000
vt 0.697085 -1.328184 0.000000
vt -0.697085 -1.328184 0.000000
vt 0.615619 -1.367850 0.000000
vt -0.615619 -1.367850 0.000000
vt 0.531907 -1.402524 0.000000
vt -0.531907 -1.402524 0.000000
vt 0.446255 -1.432081 0.000000
vt -0.446255 -1.432081 0.000000
vt 0.358973 -1.456413 0.000000
vt -0.358973 -1.456413 0.000000
vt 0.270383 -1.475430 0.000000
vt -0.270383 -1.475430 0.000000
vt 0.180805 -1.489063 0.000000
vt -0.180805 -1.489063 0.000000
vt 0.090568 -1.497263 0.000000
vt -0.090568 -1.497263 0.000000
vt -0.000000 -1.500000 0.000000
vt -1.500000 0.000000 0.000000
vt 1.500000 0.000000 0.000000
vt -1.497263 0.090568 0.000000
vt 1.497263 0.090568 0.000000
vt -1.489063 0.180805 0.000000
vt 1.489063 0.180805 0.000000
vt -1.475430 0.270383 0.000000
vt 1.475430 0.270383 0.000000
vt -1.456413 0.358973 0.000000
vt 1.456413 0.358973 0.000000
vt -1.432081 0.446255 0.000000
vt 1.432081 0.446255 0.000000
vt -1.402524 0.531907 0.000000
vt 1.402524 0.531907 0.000000
vt -1.367850 0.615619 0.000000
vt 1.367850 0.615619 0.000000
vt -1.328184 0.697085 0.000000
vt 1.328184 0.697085 0.000000
vt -1.283672 0.776007 0.000000
vt 1.283672 0.776007 0.000000
vt -1.234476 0.852097 0.000000
vt 1.234476 0.852097 0.000000
vt -1.180775 0.925078 0.000000
vt 1.180775 0.925078 0.000000
vt -1.122766 0.994684 0.000000
vt 1.122766 0.994684 0.000000
vt -1.060660 1.060660 0.000000
vt 1.060660 1.060660 0.000000
vt -0.994684 1.122766 0.000000
vt 0.994684 1.122766 0.000000
vt -0.925078 1.180775 0.000000
vt 0.925078 1.180775 0.000000
vt -0.852097 1.234476 0.000000
vt 0.852097 1.234476 0.000000
vt -0.776007 1.283672 0.000000
vt 0.776007 1.283672 0.000000
vt -0.697085 1.328184 0.000000
vt 0.697085 1.328184 0.000000
vt -0.615619 1.367850 0.000000
vt 0.615619 1.367850 0.000000
vt -0.531907 1.402524 0.000000
vt 0.531907 1.402524 0.000000
vt -0.446255 1.432081 0.000000
vt 0.446255 1.432081 0.000000
vt -0.358973 1.456413 0.000000
vt 0.358973 1.456413 0.000000
vt -0.270383 1.475430 0.000000
vt 0.270383 1.475430 0.000000
vt -0.180805 1.489063 0.000000
vt 0.180805 1.489063 0.000000
vt -0.090568 1.497263 0.000000
vt 0.090568 1.497263 0.000000
vt 0.000000 1.500000 0.000000
vn 0.000000 0.000000 -0.100000
vn 0.000000 0.000000 -0.100000
vn 0.000000 0.000000 -0.100000
vn 0.000000 0.000000 -0.100000
vn 0.000000 0.000000 -0.100000
vn 0.000000 0.000000 -0.100000
vn 0.000000 0.000000 -0.100000
vn 0.000000 0.000000 -0.100000
vn 0.000000 0.000000 -0.100000
vn 0.000000 0.000000 -0.100000
vn 0.000000 0.000000 -0.100000
vn 0.000000 0.000000 -0.100000
vn 0.000000 0.000000 -0.100000
vn 0.000000 0.000000 -0.100000
vn 0.000000 0.000000 -0.100000
vn 0.000000 0.000000 -0.100000
vn 0.000000 0.000000 -0.100000
vn 0.000000 0.000000 -0.100000
vn 0.000000 0.000000 -0.100000
vn 0.000000 0.000000 -0.100000
vn 0.000000 0.000000 -0.100000
vn 0.000000 0.000000 -0.100000
vn 0.000000 0.000000 -0.100000
vn 0.000000 0.000000 -0.100000
vn 0.000000 0.000000 -0.100000
vn 0.000000 0.000000 -0.100000
vn 0.000000 0.000000 -0.100000
vn 0.000000 0.000000 -0.100000
vn 0.000000 0.000000 -0.100000
vn 0.000000 0.000000 -0.100000
vn 0.000000 0.000000 -0.100000
vn 0.000000 0.000000 -0.100000
vn 0.000000 0.000000 -0.100000
vn 0.000000 0.000000 -0.100000
vn 0.000000 0.000000 -0.100000
vn 0.000000 0.000000 -0.100000
vn 0.000000 0.000000 -0.100000
vn 0.000000 0.000000 -0.100000
vn 0.000000 0.000000 -0.100000
vn 0.000000 0.000000 -0.100000
vn 0.000000 0.000000 -0.100000
vn 0.000000 0.000000 -0.100000
vn 0.000000 0.000000 -0.100000
vn 0.000000 0.000000 -0.100000
vn 0.000000 0.000000 -0.100000
vn 0.000000 0.000000 -0.100000
vn 0.000000 0.000000 -0.100000
vn 0.000000 0.000000 -0.100000
vn 0.000000 0.000000 -0.100000
vn 0.000000 0.000000 -0.100000
vn 0.000000 0.000000 -0.100000
vn 0.000000 0.000000 -0.100000
vn 0.000000 0.000000 -0.100000
vn 0.100000 0.000000 0.000000
vn 0.100000 0.000000 0.000000
vn 0.099818 -0.006038 0.000000
vn 0.099818 -0.006038 0.000000
vn 0.099271 -0.012054 0.000000
vn 0.099271 -0.012054 0.000000
vn 0.098362 -0.018026 0.000000
vn 0.098362 -0.018026 0.000000
vn 0.097094 -0.023932 0.000000
vn 0.097094 -0.023932 0.000000
vn 0.095472 -0.029750 0.000000
vn 0.095472 -0.029750 0.000000
vn 0.093502 -0.035460 0.000000
vn 0.093502 -0.035460 0.000000
vn 0.091190 -0.041041 0.000000
vn 0.091190 -0.041041 0.000000
vn 0.088546 -0.046472 0.000000
vn 0.088546 -0.046472 0.000000
vn 0.085578 -0.051734 0.000000
vn 0.085578 -0.051734 0.000000
vn 0.082298 -0.056806 0.000000
vn 0.082298 -0.056806 0.000000
vn 0.078718 -0.061672 0.000000
vn 0.078718 -0.061672 0.000000
vn 0.074851 -0.066312 0.000000
vn 0.074851 -0.066312 0.000000
vn 0.070711 -0.070711 0.000000
vn 0.070711 -0.070711 0.000000
vn 0.066312 -0.074851 0.000000
vn 0.066312 -0.074851 0.000000
vn 0.061672 -0.078718 0.000000
vn 0.061672 -0.078718 0.000000
vn 0.056806 -0.082298 0.000000
vn 0.056806 -0.082298 0.000000
vn 0.051734 -0.085578 0.000000
vn 0.051734 -0.085578 0.000000
vn 0.046472 -0.088546 0.000000
vn 0.046472 -0.088546 0.000000
vn 0.041041 -0.091190 0.000000
vn 0.041041 -0.091190 0.000000
vn 0.035460 -0.093502 0.000000
vn 0.035460 -0.093502 0.000000
vn 0.029750 -0.095472 0.000000
vn 0.029750 -0.095472 0.000000
vn 0.023932 -0.097094 0.000000
vn 0.023932 -0.097094 0.000000
vn 0.018026 -0.098362 0.000000
vn 0.018026 -0.098362 0.000000
vn 0.012054 -0.099271 0.000000
vn 0.012054 -0.099271 0.000000
vn 0.006038 -0.099818 0.000000
vn 0.006038 -0.099818 0.000000
vn 0.000000 -0.100000 0.000000
vn -0.000000 -0.100000 0.000000
vn -0.006038 -0.099818 0.000000
vn -0.006038 -0.099818 0.000000
vn -0.012054 -0.099271 0.000000
vn -0.012054 -0.099271 0.000000
vn -0.018026 -0.098362 0.000000
vn -0.018026 -0.098362 0.000000
vn -0.023932 -0.097094 0.000000
vn -0.023932 -0.097094 0.000000
vn -0.029750 -0.095472 0.000000
vn -0.029750 -0.095472 0.000000
vn -0.035460 -0.093502 0.000000
vn -0.035460 -0.093502 0.000000
vn -0.041041 -0.091190 0.000000
vn -0.041041 -0.091190 0.000000
vn -0.046472 -0.088546 0.000000
vn -0.046472 -0.088546 0.000000
vn -0.051734 -0.085578 0.000000
vn -0.051734 -0.085578 0.000000
vn -0.056806 -0.082298 0.000000
vn -0.056806 -0.082298 0.000000
vn -0.061672 -0.078718 0.000000
vn -0.061672 -0.078718 0.000000
vn -0.066312 -0.074851 0.000000
vn -0.066312 -0.074851 0.000000
vn -0.070711 -0.070711 0.000000
vn -0.070711 -0.070711 0.000000
vn -0.074851 -0.066312 0.000000
vn -0.074851 -0.066312 0.000000
vn -0.078718 -0.061672 0.000000
vn -0.078718 -0.061672 0.000000
vn -0.082298 -0.056806 0.000000
vn -0.082298 -0.056806 0.000000
vn -0.085578 -0.051734 0.000000
vn -0.085578 -0.051734 0.000000
vn -0.088546 -0.046472 0.000000
vn -0.088546 -0.046472 0.000000
vn -0.091190 -0.041041 0.000000
vn -0.091190 -0.041041 0.000000
vn -0.093502 -0.035460 0.000000
vn -0.093502 -0.035460 0.000000
vn -0.095472 -0.029750 0.000000
vn -0.095472 -0.029750 0.000000
vn -0.097094 -0.023932 0.000000
vn -0.097094 -0.023932 0.000000
vn -0.098362 -0.018026 0.000000
vn -0.098362 -0.018026 0.000000
vn -0.099271 -0.012054 0.000000
vn -0.099271 -0.012054 0.000000
vn -0.099818 -0.006038 0.000000
vn -0.099818 -0.006038 0.000000
vn -0.100000 -0.000000 0.000000
vn -0.100000 -0.000000 0.000000
vn 0.000000 0.000000 0.100000
vn 0.000000 0.000000 0.100000
vn 0.000000 0.000000 0.100000
vn 0.000000 0.000000 0.100000
vn 0.000000 0.000000 0.100000
vn 0.000000 0.000000 0.100000
vn 0.000000 0.000000 0.100000
vn 0.000000 0.000000 0.100000
vn 0.000000 0.000000 0.100000
vn 0.000000 0.000000 0.100000
vn 0.000000 0.000000 0.100000
vn 0.000000 0.000000 0.100000
vn 0.000000 0.000000 0.100000
vn 0.000000 0.000000 0.100000
vn 0.000000 0.000000 0.100000
vn 0.000000 0.000000 0.100000
vn 0.000000 0.000000 0.100000
vn 0.000000 0.000000 0.100000
vn 0.000000 0.000000 0.100000
vn 0.000000 0.000000 0.100000
vn 0.000000 0.000000 0.100000
vn 0.000000 0.000000 0.100000
vn 0.000000 0.000000 0.100000
vn 0.000000 0.000000 0.100000
vn 0.000000 0.000000 0.100000
vn 0.000000 0.000000 0.100000
vn 0.000000 0.000000 0.100000
vn 0.000000 0.000000 0.100000
vn 0.000000 0.000000 0.100000
vn 0.000000 0.000000 0.100000
vn 0.000000 0.000000 0.100000
vn 0.000000 0.000000 0.100000
vn 0.000000 0.000000 0.100000
vn 0.000000 0.000000 0.100000
vn 0.000000 0.000000 0.100000
vn 0.000000 0.000000 0.100000
vn 0.000000 0.000000 0.100000
vn 0.000000 0.000000 0.100000
vn 0.000000 0.000000 0.100000
vn 0.000000 0.000000 0.100000
vn 0.000000 0.000000 0.100000
vn 0.000000 0.000000 0.100000
vn 0.000000 0.000000 0.100000
vn 0.000000 0.000000 0.100000
vn 0.000000 0.000000 0.100000
vn 0.000000 0.000000 0.100000
vn 0.000000 0.000000 0.100000
vn 0.000000 0.000000 0.100000
vn 0.000000 0.000000 0.100000
vn 0.000000 0.000000 0.100000
vn 0.000000 0.000000 0.100000
vn 0.000000 0.000000 0.100000
vn 0.000000 0.000000 0.100000
vn 0.099818 0.006038 0.000000
vn 0.099818 0.006038 0.000000
vn 0.099271 0.012054 0.000000
vn 0.099271 0.012054 0.000000
vn 0.098362 0.018026 0.000000
vn 0.098362 0.018026 0.000000
vn 0.097094 0.023932 0.000000
vn 0.097094 0.023932 0.000000
vn 0.095472 0.029750 0.000000
vn 0.095472 0.029750 0.000000
vn 0.093502 0.035460 0.000000
vn 0.093502 0.035460 0.000000
vn 0.091190 0.041041 0.000000
vn 0.091190 0.041041 0.000000
vn 0.088546 0.046472 0.000000
vn 0.088546 0.046472 0.000000
vn 0.085578 0.051734 0.000000
vn 0.085578 0.051734 0.000000
vn 0.082298 0.056806 0.000000
vn 0.082298 0.056806 0.000000
vn 0.078718 0.061672 0.000000
vn 0.078718 0.061672 0.000000
vn 0.074851 0.066312 0.000000
vn 0.074851 0.066312 0.000000
vn 0.070711 0.070711 0.000000
vn 0.070711 0.070711 0.000000
vn 0.066312 0.074851 0.000000
vn 0.066312 0.074851 0.000000
vn 0.061672 0.078718 0.000000
vn 0.061672 0.078718 0.000000
vn 0.056806 0.082298 0.000000
vn 0.056806 0.082298 0.000000
vn 0.051734 0.085578 0.000000
vn 0.051734 0.085578 0.000000
vn 0.046472 0.088546 0.000000
vn 0.046472 0.088546 0.000000
vn 0.041041 0.091190 0.000000
vn 0.041041 0.091190 0.000000
vn 0.035460 0.093502 0.000000
vn 0.035460 0.093502 0.000000
vn 0.029750 0.095472 0.000000
vn 0.029750 0.095472 0.000000
vn 0.023932 0.097094 0.000000
vn 0.023932 0.097094 0.000000
vn 0.018026 0.098362 0.000000
vn 0.018026 0.098362 0.000000
vn 0.012054 0.099271 0.000000
vn 0.012054 0.099271 0.000000
vn 0.006038 0.099818 0.000000
vn 0.006038 0.099818 0.000000
vn 0.000000 0.100000 0.000000
vn -0.000000 0.100000 -0.000000
vn -0.006038 0.099818 -0.000000
vn -0.006038 0.099818 -0.000000
vn -0.012054 0.099271 -0.000000
vn -0.012054 0.099271 -0.000000
vn -0.018026 0.098362 -0.000000
vn -0.018026 0.098362 -0.000000
vn -0.023932 0.097094 -0.000000
vn -0.023932 0.097094 -0.000000
vn -0.029750 0.095472 -0.000000
vn -0.029750 0.095472 -0.000000
vn -0.035460 0.093502 -0.000000
vn -0.035460 0.093502 -0.000000
vn -0.041041 0.091190 -0.000000
vn -0.041041 0.091190 -0.000000
vn -0.046472 0.088546 -0.000000
vn -0.046472 0.088546 -0.000000
vn -0.051734 0.085578 -0.000000
vn -0.051734 0.085578 -0.000000
vn -0.056806 0.082298 -0.000000
vn -0.056806 0.082298 -0.000000
vn -0.061672 0.078718 -0.000000
vn -0.061672 0.078718 -0.000000
vn -0.066312 0.074851 -0.000000
vn -0.066312 0.074851 -0.000000
vn -0.070711 0.070711 -0.000000
vn -0.070711 0.070711 -0.000000
vn -0.074851 0.066312 -0.000000
vn -0.074851 0.066312 -0.000000
vn -0.078718 0.061672 -0.000000
vn -0.078718 0.061672 -0.000000
vn -0.082298 0.056806 -0.000000
vn -0.082298 0.056806 -0.000000
vn -0.085578 0.051734 -0.000000
vn -0.085578 0.051734 -0.000000
vn -0.088546 0.046472 -0.000000
vn -0.088546 0.046472 -0.000000
vn -0.091190 0.041041 -0.000000
vn -0.091190 0.041041 -0.000000
vn -0.093502 0.035460 -0.000000
vn -0.093502 0.035460 -0.000000
vn -0.095472 0.029750 -0.000000
vn -0.095472 0.029750 -0.000000
vn -0.097094 0.023932 -0.000000
vn -0.097094 0.023932 -0.000000
vn -0.098362 0.018026 -0.000000
vn -0.098362 0.018026 -0.000000
vn -0.099271 0.012054 -0.000000
vn -0.099271 0.012054 -0.000000
vn -0.099818 0.006038 -0.000000
vn -0.099818 0.006038 -0.000000
vn 0.000000 0.000000 -0.100000
vn 0.000000 0.000000 -0.100000
vn 0.000000 0.000000 -0.100000
vn 0.000000 0.000000 -0.100000
vn 0.000000 0.000000 -0.100000
vn 0.000000 0.000000 -0.100000
vn 0.000000 0.000000 -0.100000
vn 0.000000 0.000000 -0.100000
vn 0.000000 0.000000 -0.100000
vn 0.000000 0.000000 -0.100000
vn 0.000000 0.000000 -0.100000
vn 0.000000 0.000000 -0.100000
vn 0.000000 0.000000 -0.100000
vn 0.000000 0.000000 -0.100000
vn 0.000000 0.000000 -0.100000
vn 0.000000 0.000000 -0.100000
vn 0.000000 0.000000 -0.100000
vn 0.000000 0.000000 -0.100000
vn 0.000000 0.000000 -0.100000
vn 0.000000 0.000000 -0.100000
vn 0.000000 0.000000 -0.100000
vn 0.000000 0.000000 -0.100000
vn 0.000000 0.000000 -0.100000
vn 0.000000 0.000000 -0.100000
vn 0.000000 0.000000 -0.100000
vn 0.000000 0.000000 -0.100000
vn 0.000000 0.000000 -0.100000
vn 0.000000 0.000000 -0.100000
vn 0.000000 0.000000 -0.100000
vn 0.000000 0.000000 -0.100000
vn 0.000000 0.000000 -0.100000
vn 0.000000 0.000000 -0.100000
vn 0.000000 0.000000 -0.100000
vn 0.000000 0.000000 -0.100000
vn 0.000000 0.000000 -0.100000
vn 0.000000 0.000000 -0.100000
vn 0.000000 0.000000 -0.100000
vn 0.000000 0.000000 -0.100000
vn 0.000000 0.000000 -0.100000
vn 0.000000 0.000000 -0.100000
vn 0.000000 0.000000 -0.100000
vn 0.000000 0.000000 -0.100000
vn 0.000000 0.000000 -0.100000
vn 0.000000 0.000000 -0.100000
vn 0.000000 0.000000 -0.100000
vn 0.000000 0.000000 -0.100000
vn 0.000000 0.000000 -0.100000
vn 0.000000 0.000000 -0.100000
vn 0.000000 0.000000 -0.100000
vn 0.000000 0.000000 -0.100000
vn 0.000000 0.000000 -0.100000
vn 0.000000 0.000000 0.100000
vn 0.000000 0.000000 0.100000
vn 0.000000 0.000000 0.100000
vn 0.000000 0.000000 0.100000
vn 0.000000 0.000000 0.100000
vn 0.000000 0.000000 0.100000
vn 0.000000 0.000000 0.100000
vn 0.000000 0.000000 0.100000
vn 0.000000 0.000000 0.100000
vn 0.000000 0.000000 0.100000
vn 0.000000 0.000000 0.100000
vn 0.000000 0.000000 0.100000
vn 0.000000 0.000000 0.100000
vn 0.000000 0.000000 0.100000
vn 0.000000 0.000000 0.100000
vn 0.000000 0.000000 0.100000
vn 0.000000 0.000000 0.100000
vn 0.000000 0.000000 0.100000
vn 0.000000 0.000000 0.100000
vn 0.000000 0.000000 0.100000
vn 0.000000 0.000000 0.100000
vn 0.000000 0.000000 0.100000
vn 0.000000 0.000000 0.100000
vn 0.000000 0.000000 0.100000
vn 0.000000 0.000000 0.100000
vn 0.000000 0.000000 0.100000
vn 0.000000 0.000000 0.100000
vn 0.000000 0.000000 0.100000
vn 0.000000 0.000000 0.100000
vn 0.000000 0.000000 0.100000
vn 0.000000 0.000000 0.100000
vn 0.000000 0.000000 0.100000
vn 0.000000 0.000000 0.100000
vn 0.000000 0.000000 0.100000
vn 0.000000 0.000000 0.100000
vn 0.000000 0.000000 0.100000
vn 0.000000 0.000000 0.100000
vn 0.000000 0.000000 0.100000
vn 0.000000 0.000000 0.100000
vn 0.000000 0.000000 0.100000
vn 0.000000 0.000000 0.100000
vn 0.000000 0.000000 0.100000
vn 0.000000 0.000000 0.100000
vn 0.000000 0.000000 0.100000
vn 0.000000 0.000000 0.100000
vn 0.000000 0.000000 0.100000
vn 0.000000 0.000000 0.100000
vn 0.000000 0.000000 0.100000
vn 0.000000 0.000000 0.100000
vn 0.000000 0.000000 0.100000
vn 0.000000 0.000000 0.100000
usemtl Polymide_(Kapton)
f 1/1/1 2/2/2 53/3/3
f 53/3/3 2/2/2 3/4/4
f 53/3/3 3/4/4 52/5/5
f 52/5/5 3/4/4 4/6/6
f 52/5/5 4/6/6 51/7/7
f 51/7/7 4/6/6 5/8/8
f 51/7/7 5/8/8 50/9/9
f 50/9/9 5/8/8 6/10/10
f 50/9/9 6/10/10 49/11/11
f 49/11/11 6/10/10 7/12/12
f 49/11/11 7/12/12 48/13/13
f 48/13/13 7/12/12 8/14/14
f 48/13/13 8/14/14 47/15/15
f 47/15/15 8/14/14 9/16/16
f 47/15/15 9/16/16 46/17/17
f 46/17/17 9/16/16 10/18/18
f 46/17/17 10/18/18 45/19/19
f 45/19/19 10/18/18 11/20/20
f 45/19/19 11/20/20 44/21/21
f 44/21/21 11/20/20 12/22/22
f 44/21/21 12/22/22 43/23/23
f 43/23/23 12/22/22 13/24/24
f 43/23/23 13/24/24 42/25/25
f 42/25/25 13/24/24 14/26/26
f 42/25/25 14/26/26 41/27/27
f 41/27/27 14/26/26 15/28/28
f 41/27/27 15/28/28 40/29/29
f 40/29/29 15/28/28 16/30/30
f 40/29/29 16/30/30 39/31/31
f 39/31/31 16/30/30 17/32/32
f 39/31/31 17/32/32 38/33/33
f 38/33/33 17/32/32 18/34/34
f 38/33/33 18/34/34 37/35/35
f 37/35/35 18/34/34 19/36/36
f 37/35/35 19/36/36 36/37/37
f 36/37/37 19/36/36 20/38/38
f 36/37/37 20/38/38 35/39/39
f 35/39/39 20/38/38 21/40/40
f 35/39/39 21/40/40 34/41/41
f 34/41/41 21/40/40 22/42/42
f 34/41/41 22/42/42 33/43/43
f 33/43/43 22/42/42 23/44/44
f 33/43/43 23/44/44 32/45/45
f 32/45/45 23/44/44 24/46/46
f 32/45/45 24/46/46 31/47/47
f 31/47/47 24/46/46 25/48/48
f 31/47/47 25/48/48 30/49/49
f 30/49/49 25/48/48 26/50/50
f 30/49/49 26/50/50 29/51/51
f 29/51/51 26/50/50 27/52/52
f 29/51/51 27/52/52 28/53/53
usemtl Bamboo_Light_-_Semigloss
f 1/54/54 54/55/55 157/56/56
f 157/56/56 54/55/55 55/57/57
f 157/56/56 55/57/57 156/58/58
f 156/58/58 55/57/57 56/59/59
f 156/58/58 56/59/59 155/60/60
f 155/60/60 56/59/59 57/61/61
f 155/60/60 57/61/61 154/62/62
f 154/62/62 57/61/61 58/63/63
f 154/62/62 58/63/63 153/64/64
f 153/64/64 58/63/63 59/65/65
f 153/64/64 59/65/65 152/66/66
f 152/66/66 59/65/65 60/67/67
f 152/66/66 60/67/67 151/68/68
f 151/68/68 60/67/67 61/69/69
f 151/68/68 61/69/69 150/70/70
f 150/70/70 61/69/69 62/71/71
f 150/70/70 62/71/71 149/72/72
f 149/72/72 62/71/71 63/73/73
f 149/72/72 63/73/73 148/74/74
f 148/74/74 63/73/73 64/75/75
f 148/74/74 64/75/75 147/76/76
f 147/76/76 64/75/75 65/77/77
f 147/76/76 65/77/77 146/78/78
f 146/78/78 65/77/77 66/79/79
f 146/78/78 66/79/79 145/80/80
f 145/80/80 66/79/79 67/81/81
f 145/80/80 67/81/81 144/82/82
f 144/82/82 67/81/81 68/83/83
f 144/82/82 68/83/83 143/84/84
f 143/84/84 68/83/83 69/85/85
f 143/84/84 69/85/85 142/86/86
f 142/86/86 69/85/85 70/87/87
f 142/86/86 70/87/87 141/88/88
f 141/88/88 70/87/87 71/89/89
f 141/88/88 71/89/89 140/90/90
f 140/90/90 71/89/89 72/91/91
f 140/90/90 72/91/91 139/92/92
f 139/92/92 72/91/91 73/93/93
f 139/92/92 73/93/93 138/94/94
f 138/94/94 73/93/93 74/95/95
f 138/94/94 74/95/95 137/96/96
f 137/96/96 74/95/95 75/97/97
f 137/96/96 75/97/97 136/98/98
f 136/98/98 75/97/97 76/99/99
f 136/98/98 76/99/99 135/100/100
f 135/100/100 76/99/99 77/101/101
f 135/100/100 77/101/101 134/102/102
f 134/102/102 77/101/101 78/103/103
f 134/102/102 78/103/103 133/104/104
f 133/104/104 78/103/103 79/105/105
f 133/104/104 79/105/105 132/106/106
f 132/106/106 79/105/105 80/107/107
f 132/106/106 80/107/107 131/108/108
f 131/108/108 80/107/107 81/109/109
f 131/108/108 81/109/109 130/110/110
f 130/110/110 81/109/109 82/111/111
f 130/110/110 82/111/111 129/112/112
f 129/112/112 82/111/111 83/113/113
f 129/112/112 83/113/113 128/114/114
f 128/114/114 83/113/113 84/115/115
f 128/114/114 84/115/115 127/116/116
f 127/116/116 84/115/115 85/117/117
f 127/116/116 85/117/117 126/118/118
f 126/118/118 85/117/117 86/119/119
f 126/118/118 86/119/119 125/120/120
f 125/120/120 86/119/119 87/121/121
f 125/120/120 87/121/121 124/122/122
f 124/122/122 87/121/121 88/123/123
f 124/122/122 88/123/123 123/124/124
f 123/124/124 88/123/123 89/125/125
f 123/124/124 89/125/125 122/126/126
f 122/126/126 89/125/125 90/127/127
f 122/126/126 90/127/127 121/128/128
f 121/128/128 90/127/127 91/129/129
f 121/128/128 91/129/129 120/130/130
f 120/130/130 91/129/129 92/131/131
f 120/130/130 92/131/131 119/132/132
f 119/132/132 92/131/131 93/133/133
f 119/132/132 93/133/133 118/134/134
f 118/134/134 93/133/133 94/135/135
f 118/134/134 94/135/135 117/136/136
f 117/136/136 94/135/135 95/137/137
f 117/136/136 95/137/137 116/138/138
f 116/138/138 95/137/137 96/139/139
f 116/138/138 96/139/139 115/140/140
f 115/140/140 96/139/139 97/141/141
f 115/140/140 97/141/141 114/142/142
f 114/142/142 97/141/141 98/143/143
f 114/142/142 98/143/143 113/144/144
f 113/144/144 98/143/143 99/145/145
f 113/144/144 99/145/145 112/146/146
f 112/146/146 99/145/145 100/147/147
f 112/146/146 100/147/147 111/148/148
f 111/148/148 100/147/147 101/149/149
f 111/148/148 101/149/149 110/150/150
f 110/150/150 101/149/149 102/151/151
f 110/150/150 102/151/151 109/152/152
f 109/152/152 102/151/151 103/153/153
f 109/152/152 103/153/153 108/154/154
f 108/154/154 103/153/153 104/155/155
f 108/154/154 104/155/155 107/156/156
f 107/156/156 104/155/155 105/157/157
f 107/156/156 105/157/157 2/158/158
f 2/158/158 105/157/157 106/159/159
f 54/160/160 106/161/161 55/162/162
f 55/162/162 106/161/161 105/163/163
f 55/162/162 105/163/163 56/164/164
f 56/164/164 105/163/163 104/165/165
f 56/164/164 104/165/165 57/166/166
f 57/166/166 104/165/165 103/167/167
f 57/166/166 103/167/167 58/168/168
f 58/168/168 103/167/167 102/169/169
f 58/168/168 102/169/169 59/170/170
f 59/170/170 102/169/169 101/171/171
f 59/170/170 101/171/171 60/172/172
f 60/172/172 101/171/171 100/173/173
f 60/172/172 100/173/173 61/174/174
f 61/174/174 100/173/173 99/175/175
f 61/174/174 99/175/175 62/176/176
f 62/176/176 99/175/175 98/177/177
f 62/176/176 98/177/177 63/178/178
f 63/178/178 98/177/177 97/179/179
f 63/178/178 97/179/179 64/180/180
f 64/180/180 97/179/179 96/181/181
f 64/180/180 96/181/181 65/182/182
f 65/182/182 96/181/181 95/183/183
f 65/182/182 95/183/183 66/184/184
f 66/184/184 95/183/183 94/185/185
f 66/184/184 94/185/185 67/186/186
f 67/186/186 94/185/185 93/187/187
f 67/186/186 93/187/187 68/188/188
f 68/188/188 93/187/187 92/189/189
f 68/188/188 92/189/189 69/190/190
f 69/190/190 92/189/189 91/191/191
f 69/190/190 91/191/191 70/192/192
f 70/192/192 91/191/191 90/193/193
f 70/192/192 90/193/193 71/194/194
f 71/194/194 90/193/193 89/195/195
f 71/194/194 89/195/195 72/196/196
f 72/196/196 89/195/195 88/197/197
f 72/196/196 88/197/197 73/198/198
f 73/198/198 88/197/197 87/199/199
f 73/198/198 87/199/199 74/200/200
f 74/200/200 87/199/199 86/201/201
f 74/200/200 86/201/201 75/202/202
f 75/202/202 86/201/201 85/203/203
f 75/202/202 85/203/203 76/204/204
f 76/204/204 85/203/203 84/205/205
f 76/204/204 84/205/205 77/206/206
f 77/206/206 84/205/205 83/207/207
f 77/206/206 83/207/207 78/208/208
f 78/208/208 83/207/207 82/209/209
f 78/208/208 82/209/209 79/210/210
f 79/210/210 82/209/209 81/211/211
f 79/210/210 81/211/211 80/212/212
usemtl Polymide_(Kapton)
f 54/213/55 1/214/54 208/215/213
f 208/215/213 1/214/54 53/216/214
f 208/215/213 53/216/214 207/217/215
f 207/217/215 53/216/214 52/218/216
f 207/217/215 52/218/216 206/219/217
f 206/219/217 52/218/216 51/220/218
f 206/219/217 51/220/218 205/221/219
f 205/221/219 51/220/218 50/222/220
f 205/221/219 50/222/220 204/223/221
f 204/223/221 50/222/220 49/224/222
f 204/223/221 49/224/222 203/225/223
f 203/225/223 49/224/222 48/226/224
f 203/225/223 48/226/224 202/227/225
f 202/227/225 48/226/224 47/228/226
f 202/227/225 47/228/226 201/229/227
f 201/229/227 47/228/226 46/230/228
f 201/229/227 46/230/228 200/231/229
f 200/231/229 46/230/228 45/232/230
f 200/231/229 45/232/230 199/233/231
f 199/233/231 45/232/230 44/234/232
f 199/233/231 44/234/232 198/235/233
f 198/235/233 44/234/232 43/236/234
f 198/235/233 43/236/234 197/237/235
f 197/237/235 43/236/234 42/238/236
f 197/237/235 42/238/236 196/239/237
f 196/239/237 42/238/236 41/240/238
f 196/239/237 41/240/238 195/241/239
f 195/241/239 41/240/238 40/242/240
f 195/241/239 40/242/240 194/243/241
f 194/243/241 40/242/240 39/244/242
f 194/243/241 39/244/242 193/245/243
f 193/245/243 39/244/242 38/246/244
f 193/245/243 38/246/244 192/247/245
f 192/247/245 38/246/244 37/248/246
f 192/247/245 37/248/246 191/249/247
f 191/249/247 37/248/246 36/250/248
f 191/249/247 36/250/248 190/251/249
f 190/251/249 36/250/248 35/252/250
f 190/251/249 35/252/250 189/253/251
f 189/253/251 35/252/250 34/254/252
f 189/253/251 34/254/252 188/255/253
f 188/255/253 34/254/252 33/256/254
f 188/255/253 33/256/254 187/257/255
f 187/257/255 33/256/254 32/258/256
f 187/257/255 32/258/256 186/259/257
f 186/259/257 32/258/256 31/260/258
f 186/259/257 31/260/258 185/261/259
f 185/261/259 31/260/258 30/262/260
f 185/261/259 30/262/260 184/263/261
f 184/263/261 30/262/260 29/264/262
f 184/263/261 29/264/262 183/265/263
f 183/265/263 29/264/262 28/266/264
f 183/265/263 28/266/264 182/267/265
f 182/267/265 28/266/264 27/268/266
f 182/267/265 27/268/266 181/269/267
f 181/269/267 27/268/266 26/270/268
f 181/269/267 26/270/268 180/271/269
f 180/271/269 26/270/268 25/272/270
f 180/271/269 25/272/270 179/273/271
f 179/273/271 25/272/270 24/274/272
f 179/273/271 24/274/272 178/275/273
f 178/275/273 24/274/272 23/276/274
f 178/275/273 23/276/274 177/277/275
f 177/277/275 23/276/274 22/278/276
f 177/277/275 22/278/276 176/279/277
f 176/279/277 22/278/276 21/280/278
f 176/279/277 21/280/278 175/281/279
f 175/281/279 21/280/278 20/282/280
f 175/281/279 20/282/280 174/283/281
f 174/283/281 20/282/280 19/284/282
f 174/283/281 19/284/282 173/285/283
f 173/285/283 19/284/282 18/286/284
f 173/285/283 18/286/284 172/287/285
f 172/287/285 18/286/284 17/288/286
f 172/287/285 17/288/286 171/289/287
f 171/289/287 17/288/286 16/290/288
f 171/289/287 16/290/288 170/291/289
f 170/291/289 16/290/288 15/292/290
f 170/291/289 15/292/290 169/293/291
f 169/293/291 15/292/290 14/294/292
f 169/293/291 14/294/292 168/295/293
f 168/295/293 14/294/292 13/296/294
f 168/295/293 13/296/294 167/297/295
f 167/297/295 13/296/294 12/298/296
f 167/297/295 12/298/296 166/299/297
f 166/299/297 12/298/296 11/300/298
f 166/299/297 11/300/298 165/301/299
f 165/301/299 11/300/298 10/302/300
f 165/301/299 10/302/300 164/303/301
f 164/303/301 10/302/300 9/304/302
f 164/303/301 9/304/302 163/305/303
f 163/305/303 9/304/302 8/306/304
f 163/305/303 8/306/304 162/307/305
f 162/307/305 8/306/304 7/308/306
f 162/307/305 7/308/306 161/309/307
f 161/309/307 7/308/306 6/310/308
f 161/309/307 6/310/308 160/311/309
f 160/311/309 6/310/308 5/312/310
f 160/311/309 5/312/310 159/313/311
f 159/313/311 5/312/310 4/314/312
f 159/313/311 4/314/312 158/315/313
f 158/315/313 4/314/312 3/316/314
f 158/315/313 3/316/314 106/317/159
f 106/317/159 3/316/314 2/318/158
usemtl Cherry
f 2/319/2 1/320/1 107/321/315
f 107/321/315 1/320/1 157/322/316
f 107/321/315 157/322/316 108/323/317
f 108/323/317 157/322/316 156/324/318
f 108/323/317 156/324/318 109/325/319
f 109/325/319 156/324/318 155/326/320
f 109/325/319 155/326/320 110/327/321
f 110/327/321 155/326/320 154/328/322
f 110/327/321 154/328/322 111/329/323
f 111/329/323 154/328/322 153/330/324
f 111/329/323 153/330/324 112/331/325
f 112/331/325 153/330/324 152/332/326
f 112/331/325 152/332/326 113/333/327
f 113/333/327 152/332/326 151/334/328
f 113/333/327 151/334/328 114/335/329
f 114/335/329 151/334/328 150/336/330
f 114/335/329 150/336/330 115/337/331
f 115/337/331 150/336/330 149/338/332
f 115/337/331 149/338/332 116/339/333
f 116/339/333 149/338/332 148/340/334
f 116/339/333 148/340/334 117/341/335
f 117/341/335 148/340/334 147/342/336
f 117/341/335 147/342/336 118/343/337
f 118/343/337 147/342/336 146/344/338
f 118/343/337 146/344/338 119/345/339
f 119/345/339 146/344/338 145/346/340
f 119/345/339 145/346/340 120/347/341
f 120/347/341 145/346/340 144/348/342
f 120/347/341 144/348/342 121/349/343
f 121/349/343 144/348/342 143/350/344
f 121/349/343 143/350/344 122/351/345
f 122/351/345 143/350/344 142/352/346
f 122/351/345 142/352/346 123/353/347
f 123/353/347 142/352/346 141/354/348
f 123/353/347 141/354/348 124/355/349
f 124/355/349 141/354/348 140/356/350
f 124/355/349 140/356/350 125/357/351
f 125/357/351 140/356/350 139/358/352
f 125/357/351 139/358/352 126/359/353
f 126/359/353 139/358/352 138/360/354
f 126/359/353 138/360/354 127/361/355
f 127/361/355 138/360/354 137/362/356
f 127/361/355 137/362/356 128/363/357
f 128/363/357 137/362/356 136/364/358
f 128/363/357 136/364/358 129/365/359
f 129/365/359 136/364/358 135/366/360
f 129/365/359 135/366/360 130/367/361
f 130/367/361 135/366/360 134/368/362
f 130/367/361 134/368/362 131/369/363
f 131/369/363 134/368/362 133/370/364
f 131/369/363 133/370/364 132/371/365
usemtl Polymide_(Kapton)
f 106/372/161 54/373/160 158/374/366
f 158/374/366 54/373/160 208/375/367
f 158/374/366 208/375/367 159/376/368
f 159/376/368 208/375/367 207/377/369
f 159/376/368 207/377/369 160/378/370
f 160/378/370 207/377/369 206/379/371
f 160/378/370 206/379/371 161/380/372
f 161/380/372 206/379/371 205/381/373
f 161/380/372 205/381/373 162/382/374
f 162/382/374 205/381/373 204/383/375
f 162/382/374 204/383/375 163/384/376
f 163/384/376 204/383/375 203/385/377
f 163/384/376 203/385/377 164/386/378
f 164/386/378 203/385/377 202/387/379
f 164/386/378 202/387/379 165/388/380
f 165/388/380 202/387/379 201/389/381
f 165/388/380 201/389/381 166/390/382
f 166/390/382 201/389/381 200/391/383
f 166/390/382 200/391/383 167/392/384
f 167/392/384 200/391/383 199/393/385
f 167/392/384 199/393/385 168/394/386
f 168/394/386 199/393/385 198/395/387
f 168/394/386 198/395/387 169/396/388
f 169/396/388 198/395/387 197/397/389
f 169/396/388 197/397/389 170/398/390
f 170/398/390 197/397/389 196/399/391
f 170/398/390 196/399/391 171/400/392
f 171/400/392 196/399/391 195/401/393
f 171/400/392 195/401/393 172/402/394
f 172/402/394 195/401/393 194/403/395
f 172/402/394 194/403/395 173/404/396
f 173/404/396 194/403/395 193/405/397
f 173/404/396 193/405/397 174/406/398
f 174/406/398 193/405/397 192/407/399
f 174/406/398 192/407/399 175/408/400
f 175/408/400 192/407/399 191/409/401
f 175/408/400 191/409/401 176/410/402
f 176/410/402 191/409/401 190/411/403
f 176/410/402 190/411/403 177/412/404
f 177/412/404 190/411/403 189/413/405
f 177/412/404 189/413/405 178/414/406
f 178/414/406 189/413/405 188/415/407
f 178/414/406 188/415/407 179/416/408
f 179/416/408 188/415/407 187/417/409
f 179/416/408 187/417/409 180/418/410
f 180/418/410 187/417/409 186/419/411
f 180/418/410 186/419/411 181/420/412
f 181/420/412 186/419/411 185/421/413
f 181/420/412 185/421/413 182/422/414
f 182/422/414 185/421/413 184/423/415
f 182/422/414 184/423/415 183/424/416
# 208 vertices
# 424 texture params
# 416 normals
# 412 facets

# 1 groups
