# Blender 5.1.1
# www.blender.org
mtllib LPL.mtl
o LinkPL
v -0.006490 0.159591 0.030000
v -0.007987 0.159496 0.028500
v -0.006885 0.138524 0.028500
v -0.006223 0.117533 0.028500
v -0.006002 0.096533 0.028500
v -0.004502 0.096533 0.030000
v -0.004723 0.117565 0.030000
v -0.005386 0.138587 0.030000
v -0.006388 0.161217 0.030000
v -0.005885 0.162767 0.030000
v -0.005012 0.164143 0.030000
v -0.003824 0.165258 0.030000
v -0.002396 0.166043 0.030000
v -0.000818 0.166449 0.030000
v 0.000811 0.166449 0.030000
v 0.002390 0.166043 0.030000
v 0.003818 0.165258 0.030000
v 0.005005 0.164143 0.030000
v 0.005878 0.162767 0.030000
v 0.006382 0.161217 0.030000
v 0.006484 0.159591 0.030000
v 0.007981 0.159496 0.028500
v 0.007855 0.161498 0.028500
v 0.007236 0.163406 0.028500
v 0.006161 0.165099 0.028500
v 0.004699 0.166472 0.028500
v 0.002942 0.167438 0.028500
v 0.000999 0.167937 0.028500
v -0.001006 0.167937 0.028500
v -0.002949 0.167438 0.028500
v -0.004706 0.166472 0.028500
v -0.006168 0.165099 0.028500
v -0.007242 0.163405 0.028500
v -0.007862 0.161498 0.028500
v 0.004498 0.096534 0.030000
v 0.005998 0.096534 0.028500
v 0.006218 0.117534 0.028500
v 0.006879 0.138524 0.028500
v 0.005381 0.138587 0.030000
v 0.004719 0.117565 0.030000
v 0.004499 0.063467 0.030000
v 0.005999 0.063467 0.028500
v 0.006487 0.000409 0.030000
v 0.007984 0.000504 0.028500
v 0.006882 0.021476 0.028500
v 0.006220 0.042467 0.028500
v 0.004720 0.042435 0.030000
v 0.005383 0.021413 0.030000
v 0.006385 -0.001217 0.030000
v 0.005882 -0.002767 0.030000
v 0.005009 -0.004143 0.030000
v 0.003821 -0.005258 0.030000
v 0.002393 -0.006043 0.030000
v 0.000815 -0.006449 0.030000
v -0.000815 -0.006449 0.030000
v -0.002393 -0.006043 0.030000
v -0.003821 -0.005258 0.030000
v -0.005009 -0.004143 0.030000
v -0.005882 -0.002767 0.030000
v -0.006385 -0.001217 0.030000
v -0.006487 0.000409 0.030000
v -0.007984 0.000504 0.028500
v -0.007858 -0.001498 0.028500
v -0.007239 -0.003406 0.028500
v -0.006164 -0.005099 0.028500
v -0.004703 -0.006472 0.028500
v -0.002945 -0.007438 0.028500
v -0.001003 -0.007937 0.028500
v 0.001003 -0.007937 0.028500
v 0.002945 -0.007438 0.028500
v 0.004703 -0.006472 0.028500
v 0.006165 -0.005099 0.028500
v 0.007239 -0.003405 0.028500
v 0.007859 -0.001498 0.028500
v -0.004501 0.063466 0.030000
v -0.006001 0.063466 0.028500
v -0.006221 0.042466 0.028500
v -0.006882 0.021476 0.028500
v -0.005384 0.021413 0.030000
v -0.004722 0.042435 0.030000
v -0.007984 0.000504 0.024500
v -0.007858 -0.001498 0.024500
v -0.007239 -0.003406 0.024500
v -0.006164 -0.005099 0.024500
v -0.004703 -0.006472 0.024500
v -0.002945 -0.007438 0.024500
v -0.001003 -0.007937 0.024500
v 0.001003 -0.007937 0.024500
v 0.002945 -0.007438 0.024500
v 0.004703 -0.006472 0.024500
v 0.006165 -0.005099 0.024500
v 0.007239 -0.003405 0.024500
v 0.007859 -0.001498 0.024500
v 0.007984 0.000504 0.024500
v -0.006001 0.063466 0.024500
v -0.006221 0.042466 0.024500
v -0.006882 0.021476 0.024500
v -0.006002 0.096533 0.024500
v -0.007987 0.159496 0.024500
v -0.006885 0.138524 0.024500
v -0.006223 0.117533 0.024500
v -0.001203 0.140000 0.030000
v -0.001203 0.158400 0.030000
v -0.001575 0.158764 0.030000
v -0.001841 0.159211 0.030000
v -0.001982 0.159712 0.030000
v -0.001990 0.160232 0.030000
v -0.001863 0.160737 0.030000
v -0.001610 0.161191 0.030000
v -0.001248 0.161565 0.030000
v -0.000802 0.161834 0.030000
v -0.000302 0.161978 0.030000
v 0.000218 0.161988 0.030000
v 0.000723 0.161863 0.030000
v 0.001180 0.161613 0.030000
v 0.001556 0.161253 0.030000
v 0.001826 0.160809 0.030000
v 0.001973 0.160310 0.030000
v 0.001986 0.159789 0.030000
v 0.001864 0.159283 0.030000
v 0.001616 0.158826 0.030000
v 0.001258 0.158448 0.030000
v 0.000815 0.158175 0.030000
v 0.000317 0.158026 0.030000
v -0.000203 0.158010 0.030000
v -0.000203 0.140000 0.030000
v -0.001200 0.001600 0.030000
v -0.001200 0.020000 0.030000
v -0.000200 0.020000 0.030000
v -0.000200 0.001990 0.030000
v 0.000320 0.001974 0.030000
v 0.000818 0.001825 0.030000
v 0.001261 0.001552 0.030000
v 0.001619 0.001174 0.030000
v 0.001867 0.000717 0.030000
v 0.001989 0.000211 0.030000
v 0.001976 -0.000309 0.030000
v 0.001829 -0.000809 0.030000
v 0.001559 -0.001253 0.030000
v 0.001183 -0.001613 0.030000
v 0.000727 -0.001863 0.030000
v 0.000221 -0.001988 0.030000
v -0.000299 -0.001978 0.030000
v -0.000799 -0.001834 0.030000
v -0.001245 -0.001565 0.030000
v -0.001606 -0.001191 0.030000
v -0.001859 -0.000737 0.030000
v -0.001986 -0.000232 0.030000
v -0.001979 0.000288 0.030000
v -0.001838 0.000789 0.030000
v -0.001572 0.001236 0.030000
v -0.004502 0.096533 0.023000
v -0.006490 0.159591 0.023000
v -0.005386 0.138587 0.023000
v -0.004723 0.117565 0.023000
v -0.004501 0.063466 0.023000
v -0.006487 0.000409 0.023000
v -0.004722 0.042435 0.023000
v -0.005384 0.021413 0.023000
v -0.006385 -0.001217 0.023000
v -0.005882 -0.002767 0.023000
v -0.005009 -0.004143 0.023000
v -0.003821 -0.005258 0.023000
v -0.002393 -0.006043 0.023000
v -0.000815 -0.006449 0.023000
v 0.000815 -0.006449 0.023000
v 0.002393 -0.006043 0.023000
v 0.003821 -0.005258 0.023000
v 0.005009 -0.004143 0.023000
v 0.005882 -0.002767 0.023000
v 0.006385 -0.001217 0.023000
v 0.006487 0.000409 0.023000
v 0.004499 0.063467 0.023000
v 0.005999 0.063467 0.024500
v 0.006220 0.042467 0.024500
v 0.006882 0.021476 0.024500
v 0.005383 0.021413 0.023000
v 0.004720 0.042435 0.023000
v 0.004498 0.096534 0.023000
v 0.005998 0.096534 0.024500
v 0.006484 0.159591 0.023000
v 0.007981 0.159496 0.024500
v 0.006879 0.138524 0.024500
v 0.006218 0.117534 0.024500
v 0.004719 0.117565 0.023000
v 0.005381 0.138587 0.023000
v 0.006382 0.161217 0.023000
v 0.005878 0.162767 0.023000
v 0.005005 0.164143 0.023000
v 0.003818 0.165258 0.023000
v 0.002390 0.166043 0.023000
v 0.000811 0.166449 0.023000
v -0.000818 0.166449 0.023000
v -0.002396 0.166043 0.023000
v -0.003824 0.165258 0.023000
v -0.005012 0.164143 0.023000
v -0.005885 0.162767 0.023000
v -0.006388 0.161217 0.023000
v -0.007862 0.161498 0.024500
v -0.007242 0.163405 0.024500
v -0.006168 0.165099 0.024500
v -0.004706 0.166472 0.024500
v -0.002949 0.167438 0.024500
v -0.001006 0.167937 0.024500
v 0.000999 0.167937 0.024500
v 0.002942 0.167438 0.024500
v 0.004699 0.166472 0.024500
v 0.006161 0.165099 0.024500
v 0.007236 0.163406 0.024500
v 0.007855 0.161498 0.024500
v -0.001203 0.158400 0.023000
v -0.001203 0.140000 0.023000
v -0.000203 0.140000 0.023000
v -0.000203 0.158010 0.023000
v 0.000317 0.158026 0.023000
v 0.000815 0.158175 0.023000
v 0.001258 0.158448 0.023000
v 0.001616 0.158826 0.023000
v 0.001864 0.159283 0.023000
v 0.001986 0.159789 0.023000
v 0.001973 0.160310 0.023000
v 0.001826 0.160809 0.023000
v 0.001556 0.161253 0.023000
v 0.001180 0.161613 0.023000
v 0.000723 0.161863 0.023000
v 0.000218 0.161988 0.023000
v -0.000302 0.161978 0.023000
v -0.000802 0.161834 0.023000
v -0.001248 0.161565 0.023000
v -0.001610 0.161191 0.023000
v -0.001863 0.160737 0.023000
v -0.001990 0.160232 0.023000
v -0.001982 0.159712 0.023000
v -0.001841 0.159211 0.023000
v -0.001575 0.158764 0.023000
v -0.001200 0.020000 0.023000
v -0.001200 0.001600 0.023000
v -0.001572 0.001236 0.023000
v -0.001838 0.000789 0.023000
v -0.001979 0.000288 0.023000
v -0.001986 -0.000232 0.023000
v -0.001859 -0.000737 0.023000
v -0.001606 -0.001191 0.023000
v -0.001245 -0.001565 0.023000
v -0.000799 -0.001834 0.023000
v -0.000299 -0.001978 0.023000
v 0.000221 -0.001988 0.023000
v 0.000727 -0.001863 0.023000
v 0.001183 -0.001613 0.023000
v 0.001559 -0.001253 0.023000
v 0.001829 -0.000809 0.023000
v 0.001976 -0.000309 0.023000
v 0.001989 0.000211 0.023000
v 0.001867 0.000717 0.023000
v 0.001619 0.001174 0.023000
v 0.001261 0.001552 0.023000
v 0.000818 0.001825 0.023000
v 0.000320 0.001974 0.023000
v -0.000200 0.001990 0.023000
v -0.000200 0.020000 0.023000
vn -0.7057 -0.0445 0.7071
vn -0.7060 -0.0445 0.7069
vn -0.7065 -0.0297 0.7071
vn -0.7070 -0.0149 0.7071
vn -0.7071 -0.0000 0.7071
vn -0.6946 0.1324 0.7071
vn -0.6399 0.3010 0.7071
vn -0.6398 0.3010 0.7071
vn -0.5449 0.4507 0.7071
vn -0.4157 0.5720 0.7071
vn -0.2603 0.6574 0.7071
vn -0.0886 0.7015 0.7071
vn 0.0886 0.7015 0.7071
vn 0.2603 0.6574 0.7071
vn 0.4157 0.5720 0.7071
vn 0.5449 0.4507 0.7071
vn 0.6398 0.3010 0.7071
vn 0.6946 0.1324 0.7071
vn 0.7057 -0.0445 0.7071
vn 0.7060 -0.0445 0.7068
vn 0.7071 -0.0000 0.7071
vn 0.7070 -0.0148 0.7071
vn 0.7065 -0.0297 0.7071
vn 0.7057 0.0445 0.7071
vn 0.7060 0.0445 0.7069
vn 0.7065 0.0297 0.7071
vn 0.7070 0.0149 0.7071
vn 0.6946 -0.1324 0.7071
vn 0.6399 -0.3010 0.7071
vn 0.6398 -0.3010 0.7071
vn 0.5449 -0.4507 0.7071
vn 0.4157 -0.5720 0.7071
vn 0.2603 -0.6574 0.7071
vn 0.0886 -0.7015 0.7071
vn -0.0886 -0.7015 0.7071
vn -0.2603 -0.6574 0.7071
vn -0.4157 -0.5720 0.7071
vn -0.5449 -0.4507 0.7071
vn -0.6398 -0.3010 0.7071
vn -0.6946 -0.1324 0.7071
vn -0.7057 0.0445 0.7071
vn -0.7060 0.0445 0.7068
vn -0.7070 0.0148 0.7071
vn -0.7065 0.0297 0.7071
vn 0.9980 0.0630 -0.0000
vn 0.9823 -0.1872 -0.0000
vn 0.9049 -0.4257 -0.0000
vn 0.7706 -0.6373 -0.0000
vn 0.5879 -0.8090 -0.0000
vn 0.3682 -0.9298 -0.0000
vn 0.1254 -0.9921 -0.0000
vn -0.1253 -0.9921 -0.0000
vn -0.3681 -0.9298 -0.0000
vn -0.5878 -0.8090 -0.0000
vn -0.7706 -0.6374 -0.0000
vn -0.9049 -0.4257 -0.0000
vn -0.9823 -0.1873 -0.0000
vn -0.9980 0.0629 -0.0000
vn -0.9991 0.0420 -0.0000
vn -0.9998 0.0210 -0.0000
vn -1.0000 -0.0000 -0.0000
vn -0.9998 -0.0210 -0.0000
vn -0.9991 -0.0420 -0.0000
vn -0.9980 -0.0630 -0.0000
vn -0.0000 -0.0000 1.0000
vn -0.7071 -0.0000 -0.7071
vn -0.7070 -0.0149 -0.7071
vn -0.7065 -0.0297 -0.7071
vn -0.7057 -0.0445 -0.7071
vn -0.7060 -0.0445 -0.7068
vn -0.7057 0.0445 -0.7071
vn -0.7060 0.0445 -0.7069
vn -0.7065 0.0297 -0.7071
vn -0.7070 0.0148 -0.7071
vn -0.6946 -0.1324 -0.7071
vn -0.6398 -0.3010 -0.7071
vn -0.5449 -0.4507 -0.7071
vn -0.4157 -0.5720 -0.7071
vn -0.2603 -0.6574 -0.7071
vn -0.0886 -0.7015 -0.7071
vn 0.0886 -0.7015 -0.7071
vn 0.2603 -0.6574 -0.7071
vn 0.4157 -0.5720 -0.7071
vn 0.5449 -0.4507 -0.7071
vn 0.6399 -0.3010 -0.7071
vn 0.6946 -0.1324 -0.7071
vn 0.7057 0.0445 -0.7071
vn 0.7060 0.0445 -0.7068
vn 0.7071 -0.0000 -0.7071
vn 0.7071 0.0001 -0.7071
vn 0.7069 0.0149 -0.7071
vn 0.7065 0.0297 -0.7071
vn 0.7057 -0.0445 -0.7071
vn 0.7060 -0.0445 -0.7069
vn 0.7065 -0.0297 -0.7071
vn 0.7070 -0.0148 -0.7071
vn 0.6946 0.1324 -0.7071
vn 0.6398 0.3010 -0.7071
vn 0.5449 0.4507 -0.7071
vn 0.4157 0.5720 -0.7071
vn 0.4156 0.5720 -0.7071
vn 0.2603 0.6574 -0.7071
vn 0.0886 0.7015 -0.7071
vn -0.0886 0.7015 -0.7071
vn -0.2603 0.6574 -0.7071
vn -0.4157 0.5720 -0.7071
vn -0.5449 0.4507 -0.7071
vn -0.6398 0.3010 -0.7071
vn -0.6399 0.3010 -0.7071
vn -0.6946 0.1324 -0.7071
vn 1.0000 -0.0000 -0.0000
vn 0.9980 -0.0629 -0.0000
vn 0.9991 -0.0420 -0.0000
vn 0.9998 -0.0210 -0.0000
vn -0.9823 0.1872 -0.0000
vn -0.9049 0.4257 -0.0000
vn -0.9049 0.4256 -0.0000
vn -0.7706 0.6373 -0.0000
vn -0.5879 0.8090 -0.0000
vn -0.3682 0.9298 -0.0000
vn -0.1254 0.9921 -0.0000
vn 0.1253 0.9921 -0.0000
vn 0.3681 0.9298 -0.0000
vn 0.5878 0.8090 -0.0000
vn 0.7706 0.6374 -0.0000
vn 0.9049 0.4257 -0.0000
vn 0.9823 0.1873 -0.0000
vn -0.0000 -0.0000 -1.0000
vn -0.0001 -0.0000 -1.0000
vn 0.0001 -0.0000 -1.0000
vn 0.9998 0.0210 -0.0000
vn 0.9991 0.0420 -0.0000
vn 0.6000 0.8000 -0.0000
vn 0.7860 0.6182 -0.0000
vn 0.9189 0.3945 -0.0000
vn 0.9896 0.1441 -0.0000
vn 0.9932 -0.1160 -0.0000
vn 0.9297 -0.3683 -0.0000
vn 0.8032 -0.5957 -0.0000
vn 0.6224 -0.7827 -0.0000
vn 0.3994 -0.9168 -0.0000
vn 0.1494 -0.9888 -0.0000
vn -0.1107 -0.9939 -0.0000
vn -0.3633 -0.9317 -0.0000
vn -0.5913 -0.8064 -0.0000
vn -0.7793 -0.6266 -0.0000
vn -0.9146 -0.4044 -0.0000
vn -0.9880 -0.1548 -0.0000
vn -0.9880 -0.1547 -0.0000
vn -0.9944 0.1053 -0.0000
vn -0.9336 0.3583 -0.0000
vn -0.8096 0.5870 -0.0000
vn -0.6308 0.7760 -0.0000
vn -0.4093 0.9124 -0.0000
vn -0.1601 0.9871 -0.0000
vn 0.1000 0.9950 -0.0000
vn -0.0000 1.0000 -0.0000
vn -0.0000 -1.0000 -0.0000
vn 0.1000 -0.9950 -0.0000
vn -0.1600 -0.9871 -0.0000
vn -0.4092 -0.9124 -0.0000
vn -0.6308 -0.7760 -0.0000
vn -0.8096 -0.5870 -0.0000
vn -0.9336 -0.3583 -0.0000
vn -0.9944 -0.1054 -0.0000
vn -0.9880 0.1547 -0.0000
vn -0.9146 0.4043 -0.0000
vn -0.7794 0.6266 -0.0000
vn -0.5914 0.8064 -0.0000
vn -0.3633 0.9317 -0.0000
vn -0.1107 0.9939 -0.0000
vn 0.1494 0.9888 -0.0000
vn 0.3994 0.9168 -0.0000
vn 0.6224 0.7827 -0.0000
vn 0.8032 0.5957 -0.0000
vn 0.9297 0.3684 -0.0000
vn 0.9932 0.1161 -0.0000
vn 0.9896 -0.1441 -0.0000
vn 0.9189 -0.3945 -0.0000
vn 0.7861 -0.6181 -0.0000
vn 0.6001 -0.8000 -0.0000
vn 0.6000 -0.8000 -0.0000
vt -0.106066 -3.152588
vt 0.106066 -3.152588
vt -0.106066 -1.050863
vt 0.106066 -1.050863
vt 0.106066 1.050863
vt 0.106066 3.152588
vt -0.106066 3.152588
vt -0.106066 1.050863
vt 0.106066 1.799351
vt -0.106066 1.799351
vt 0.106066 1.617119
vt -0.106066 1.617119
vt 0.106066 1.434887
vt -0.106066 1.434887
vt 0.106066 1.252656
vt -0.106066 1.252656
vt 0.106066 1.070424
vt -0.106066 1.070424
vt 0.106066 0.888192
vt -0.106066 0.888192
vt 0.106066 0.705961
vt -0.106066 0.705961
vt 0.106066 0.523729
vt -0.106066 0.523729
vt 0.106066 0.341498
vt -0.106066 0.341498
vt 0.106066 0.159266
vt -0.106066 0.159266
vt 0.106066 -0.022966
vt -0.106066 -0.022966
vt 0.106066 -0.205197
vt -0.106066 -0.205197
vt 0.106066 -0.387429
vt -0.106066 -0.387429
vt 0.106066 -0.569661
vt -0.106066 -0.569661
vt -2.082078 0.106066
vt -5.388772 0.106066
vt -2.082078 -0.106066
vt -5.388772 -0.106066
vt 0.106066 1.184506
vt -0.106066 1.184506
vt 0.106066 1.002274
vt -0.106066 1.002274
vt 0.106066 0.820042
vt -0.106066 0.820042
vt 0.106066 0.637811
vt -0.106066 0.637811
vt 0.106066 0.455579
vt -0.106066 0.455579
vt 0.106066 0.273347
vt -0.106066 0.273347
vt 0.106066 0.091116
vt -0.106066 0.091116
vt 0.106066 -0.091116
vt -0.106066 -0.091116
vt 0.106066 -0.273347
vt -0.106066 -0.273347
vt 0.106066 -0.455579
vt -0.106066 -0.455579
vt 0.106066 -0.637811
vt -0.106066 -0.637811
vt 0.106066 -0.820042
vt -0.106066 -0.820042
vt 0.106066 -1.002274
vt -0.106066 -1.002274
vt 0.106066 -1.184506
vt -0.106066 -1.184506
vt 2.082078 -0.106066
vt 5.388772 -0.106066
vt 2.082078 0.106066
vt 5.388772 0.106066
vt -0.200000 -1.307041
vt 0.200000 -1.307041
vt -0.200000 -1.105957
vt 0.200000 -1.105957
vt -0.200000 -0.904874
vt 0.200000 -0.904874
vt -0.200000 -0.703791
vt 0.200000 -0.703791
vt -0.200000 -0.502708
vt 0.200000 -0.502708
vt -0.200000 -0.301625
vt 0.200000 -0.301625
vt -0.200000 -0.100542
vt 0.200000 -0.100542
vt -0.200000 0.100542
vt 0.200000 0.100542
vt -0.200000 0.301625
vt 0.200000 0.301625
vt -0.200000 0.502708
vt 0.200000 0.502708
vt -0.200000 0.703791
vt 0.200000 0.703791
vt -0.200000 0.904874
vt 0.200000 0.904874
vt -0.200000 1.105957
vt 0.200000 1.105957
vt -0.200000 1.307041
vt 0.200000 1.307041
vt 0.200000 3.150225
vt -0.200000 3.150225
vt 0.200000 1.050075
vt -0.200000 1.050075
vt -0.200000 -1.050075
vt -0.200000 -3.150225
vt 0.200000 -3.150225
vt 0.200000 -1.050075
vt 5.817502 -0.200000
vt 9.124197 -0.200000
vt 5.817502 0.200000
vt 9.124197 0.200000
vt -0.120000 7.840000
vt -0.157211 7.876369
vt -0.120000 6.000000
vt -0.183782 7.921106
vt -0.197913 7.971183
vt -0.198649 8.023210
vt -0.382095 8.525836
vt -0.538332 5.858711
vt -0.472085 3.756493
vt -0.020000 6.000000
vt 0.472085 3.756493
vt 0.538332 5.858711
vt -0.239305 8.604345
vt -0.185939 8.073667
vt -0.160644 8.119137
vt -0.081475 8.644873
vt -0.124475 8.156544
vt -0.079882 8.183355
vt -0.029882 8.197755
vt 0.022141 8.198771
vt 0.081475 8.644873
vt 0.072665 8.186332
vt 0.118271 8.161282
vt 0.155871 8.125316
vt 0.239305 8.604345
vt 0.182922 8.080868
vt 0.197591 8.030946
vt 0.198887 7.978929
vt 0.382095 8.525836
vt 0.500872 8.414279
vt 0.588171 8.276686
vt 0.648710 7.959074
vt 0.638504 8.121705
vt 0.186721 7.928339
vt 0.161917 7.882599
vt 0.126153 7.844805
vt 0.081851 7.817516
vt 0.032009 7.802578
vt -0.020000 7.801003
vt -0.120000 -7.840000
vt -0.120000 -6.000000
vt -0.157211 -7.876369
vt -0.183782 -7.921106
vt -0.197913 -7.971183
vt -0.538332 -5.858711
vt -0.382095 -8.525836
vt -0.500872 -8.414279
vt -0.588171 -8.276686
vt -0.648710 -7.959074
vt -0.638504 -8.121705
vt -0.472085 -3.756493
vt -0.020000 -6.000000
vt 0.472085 -3.756493
vt 0.538332 -5.858711
vt 0.186721 -7.928339
vt 0.198887 -7.978929
vt -0.020000 -7.801003
vt 0.032009 -7.802578
vt 0.081851 -7.817516
vt 0.126153 -7.844805
vt 0.161917 -7.882599
vt 0.197591 -8.030946
vt 0.239305 -8.604345
vt 0.382095 -8.525836
vt 0.500872 -8.414279
vt 0.588171 -8.276686
vt 0.182922 -8.080868
vt 0.155871 -8.125316
vt 0.081475 -8.644873
vt 0.118271 -8.161282
vt 0.072665 -8.186332
vt 0.022141 -8.198771
vt -0.081475 -8.644873
vt -0.029882 -8.197755
vt -0.079882 -8.183355
vt -0.124475 -8.156544
vt -0.160644 -8.119137
vt -0.239305 -8.604345
vt -0.185939 -8.073667
vt -0.198649 -8.023210
vt -0.638504 8.121705
vt -0.648710 7.959074
vt -0.588171 8.276686
vt -0.500872 8.414279
vt 0.450000 1.653347
vt -0.450000 1.653347
vt -0.450000 -1.653347
vt 0.450000 -1.653347
vt 0.638504 -8.121705
vt 0.648710 -7.959074
vt 0.106066 0.569661
vt -0.106066 0.569661
vt 0.106066 0.387429
vt -0.106066 0.387429
vt 0.106066 0.205197
vt -0.106066 0.205197
vt 0.106066 0.022966
vt -0.106066 0.022966
vt 0.106066 -0.159266
vt -0.106066 -0.159266
vt 0.106066 -0.341498
vt -0.106066 -0.341498
vt 0.106066 -0.523729
vt -0.106066 -0.523729
vt 0.106066 -0.705961
vt -0.106066 -0.705961
vt 0.106066 -0.888192
vt -0.106066 -0.888192
vt 0.106066 -1.070424
vt -0.106066 -1.070424
vt 0.106066 -1.252656
vt -0.106066 -1.252656
vt 0.106066 -1.434887
vt -0.106066 -1.434887
vt 0.106066 -1.617119
vt -0.106066 -1.617119
vt 0.106066 -1.799351
vt -0.106066 -1.799351
vt -0.200000 0.527784
vt 0.200000 0.527784
vt -0.200000 0.728867
vt 0.200000 0.728867
vt -0.200000 0.929950
vt 0.200000 0.929950
vt -0.200000 1.131033
vt 0.200000 1.131033
vt -0.200000 1.332117
vt 0.200000 1.332117
vt -0.200000 1.533200
vt 0.200000 1.533200
vt -0.200000 1.734283
vt 0.200000 1.734283
vt -0.200000 1.935366
vt 0.200000 1.935366
vt -0.200000 2.136449
vt 0.200000 2.136449
vt -0.200000 2.337532
vt 0.200000 2.337532
vt -0.200000 2.538616
vt 0.200000 2.538616
vt -0.200000 2.739699
vt 0.200000 2.739699
vt -0.200000 2.940782
vt 0.200000 2.940782
vt -0.200000 3.141865
vt 0.200000 3.141865
vt 0.120000 7.840000
vt 0.120000 6.000000
vt 0.157211 7.876369
vt 0.183782 7.921106
vt 0.197913 7.971183
vt 0.020000 6.000000
vt -0.186721 7.928339
vt -0.198887 7.978929
vt 0.020000 7.801003
vt -0.032009 7.802578
vt -0.081851 7.817516
vt -0.126153 7.844805
vt -0.161917 7.882599
vt -0.197591 8.030946
vt -0.182922 8.080868
vt -0.155871 8.125316
vt -0.118271 8.161282
vt -0.072665 8.186332
vt -0.022141 8.198771
vt 0.029882 8.197755
vt 0.079882 8.183355
vt 0.124475 8.156544
vt 0.160644 8.119137
vt 0.185939 8.073667
vt 0.198649 8.023210
vt 0.120000 -7.840000
vt 0.157211 -7.876369
vt 0.120000 -6.000000
vt 0.183782 -7.921106
vt 0.197913 -7.971183
vt 0.198649 -8.023210
vt 0.020000 -6.000000
vt 0.185939 -8.073667
vt 0.160644 -8.119137
vt 0.124475 -8.156544
vt 0.079882 -8.183355
vt 0.029882 -8.197755
vt -0.022141 -8.198771
vt -0.072665 -8.186332
vt -0.118271 -8.161282
vt -0.155871 -8.125316
vt -0.182922 -8.080868
vt -0.197591 -8.030946
vt -0.198887 -7.978929
vt -0.186721 -7.928339
vt -0.161917 -7.882599
vt -0.126153 -7.844805
vt -0.081851 -7.817516
vt -0.032009 -7.802578
vt 0.020000 -7.801003
vt -0.350000 -0.185459
vt 0.350000 -0.185459
vt -0.350000 -0.133279
vt 0.350000 -0.133279
vt -0.350000 -0.081098
vt 0.350000 -0.081098
vt -0.350000 -0.028918
vt 0.350000 -0.028918
vt -0.350000 0.023263
vt 0.350000 0.023263
vt -0.350000 0.075443
vt 0.350000 0.075443
vt -0.350000 0.127624
vt 0.350000 0.127624
vt -0.350000 0.179804
vt 0.350000 0.179804
vt -0.350000 0.231985
vt 0.350000 0.231985
vt -0.350000 0.284165
vt 0.350000 0.284165
vt -0.350000 0.336346
vt 0.350000 0.336346
vt -0.350000 0.388526
vt 0.350000 0.388526
vt -0.350000 0.440707
vt 0.350000 0.440707
vt -0.350000 0.492887
vt 0.350000 0.492887
vt -0.350000 0.545068
vt 0.350000 0.545068
vt -0.350000 0.597248
vt 0.350000 0.597248
vt -0.350000 0.649428
vt 0.350000 0.649428
vt -0.350000 0.701609
vt 0.350000 0.701609
vt -0.350000 0.753789
vt 0.350000 0.753789
vt -0.350000 0.805970
vt 0.350000 0.805970
vt -0.350000 0.858150
vt 0.350000 0.858150
vt -0.350000 0.910331
vt 0.350000 0.910331
vt -0.350000 0.962511
vt 0.350000 0.962511
vt 1.801003 0.350000
vt 0.000000 0.350000
vt 1.801003 -0.350000
vt -0.000000 -0.350000
vt 0.100000 0.350000
vt 0.100000 -0.350000
vt 1.840000 0.350000
vt 1.840000 -0.350000
vt -0.350000 0.294126
vt 0.350000 0.294126
vt -0.350000 0.346306
vt 0.350000 0.346306
vt -0.350000 0.398487
vt 0.350000 0.398487
vt -0.350000 0.450667
vt 0.350000 0.450667
vt -0.350000 0.502848
vt 0.350000 0.502848
vt -0.350000 0.555028
vt 0.350000 0.555028
vt -0.350000 0.607209
vt 0.350000 0.607209
vt -0.350000 0.659389
vt 0.350000 0.659389
vt -0.350000 0.711570
vt 0.350000 0.711570
vt -0.350000 0.763750
vt 0.350000 0.763750
vt -0.350000 0.815930
vt 0.350000 0.815930
vt -0.350000 0.868111
vt 0.350000 0.868111
vt -0.350000 0.920291
vt 0.350000 0.920291
vt -0.350000 0.972472
vt 0.350000 0.972472
vt -0.350000 1.024652
vt 0.350000 1.024652
vt -0.350000 1.076833
vt 0.350000 1.076833
vt -0.350000 1.129013
vt 0.350000 1.129013
vt -0.350000 1.181194
vt 0.350000 1.181194
vt -0.350000 1.233374
vt 0.350000 1.233374
vt -0.350000 1.285555
vt 0.350000 1.285555
vt -0.350000 1.337735
vt 0.350000 1.337735
vt -0.350000 1.389916
vt 0.350000 1.389916
vt -0.350000 1.442096
vt 0.350000 1.442096
s 1
usemtl ABS_(White).004
f 1/1/1 2/2/2 8/3/3
f 8/3/3 2/2/2 3/4/3
f 8/3/3 3/4/3 4/5/4
f 5/6/5 6/7/5 4/5/4
f 4/5/4 6/7/5 7/8/4
f 4/5/4 7/8/4 8/3/3
f 2/9/2 1/10/1 34/11/6
f 34/11/6 1/10/1 9/12/6
f 34/11/6 9/12/6 33/13/7
f 33/13/7 9/12/6 10/14/8
f 33/13/7 10/14/8 32/15/9
f 32/15/9 10/14/8 11/16/9
f 32/15/9 11/16/9 31/17/10
f 31/17/10 11/16/9 12/18/10
f 31/17/10 12/18/10 30/19/11
f 30/19/11 12/18/10 13/20/11
f 30/19/11 13/20/11 29/21/12
f 29/21/12 13/20/11 14/22/12
f 29/21/12 14/22/12 28/23/13
f 28/23/13 14/22/12 15/24/13
f 28/23/13 15/24/13 27/25/14
f 27/25/14 15/24/13 16/26/14
f 27/25/14 16/26/14 26/27/15
f 26/27/15 16/26/14 17/28/15
f 26/27/15 17/28/15 25/29/16
f 25/29/16 17/28/15 18/30/16
f 25/29/16 18/30/16 24/31/17
f 24/31/17 18/30/16 19/32/17
f 24/31/17 19/32/17 23/33/18
f 23/33/18 19/32/17 20/34/18
f 23/33/18 20/34/18 22/35/19
f 22/35/19 20/34/18 21/36/20
f 35/1/21 36/2/21 40/3/22
f 40/3/22 36/2/21 37/4/22
f 40/3/22 37/4/22 38/5/23
f 22/6/19 21/7/20 38/5/23
f 38/5/23 21/7/20 39/8/23
f 38/5/23 39/8/23 40/3/22
f 35/37/21 41/38/21 36/39/21
f 36/39/21 41/38/21 42/40/21
f 43/1/24 44/2/25 48/3/26
f 48/3/26 44/2/25 45/4/26
f 48/3/26 45/4/26 46/5/27
f 42/6/21 41/7/21 46/5/27
f 46/5/27 41/7/21 47/8/27
f 46/5/27 47/8/27 48/3/26
f 44/41/25 43/42/24 74/43/28
f 74/43/28 43/42/24 49/44/28
f 74/43/28 49/44/28 73/45/29
f 73/45/29 49/44/28 50/46/30
f 73/45/29 50/46/30 72/47/31
f 72/47/31 50/46/30 51/48/31
f 72/47/31 51/48/31 71/49/32
f 71/49/32 51/48/31 52/50/32
f 71/49/32 52/50/32 70/51/33
f 70/51/33 52/50/32 53/52/33
f 70/51/33 53/52/33 69/53/34
f 69/53/34 53/52/33 54/54/34
f 69/53/34 54/54/34 68/55/35
f 68/55/35 54/54/34 55/56/35
f 68/55/35 55/56/35 67/57/36
f 67/57/36 55/56/35 56/58/36
f 67/57/36 56/58/36 66/59/37
f 66/59/37 56/58/36 57/60/37
f 66/59/37 57/60/37 65/61/38
f 65/61/38 57/60/37 58/62/38
f 65/61/38 58/62/38 64/63/39
f 64/63/39 58/62/38 59/64/39
f 64/63/39 59/64/39 63/65/40
f 63/65/40 59/64/39 60/66/40
f 63/65/40 60/66/40 62/67/41
f 62/67/41 60/66/40 61/68/42
f 75/1/5 76/2/5 80/3/43
f 80/3/43 76/2/5 77/4/43
f 80/3/43 77/4/43 78/5/44
f 62/6/41 61/7/42 78/5/44
f 78/5/44 61/7/42 79/8/44
f 78/5/44 79/8/44 80/3/43
f 75/69/5 6/70/5 76/71/5
f 76/71/5 6/70/5 5/72/5
f 94/73/45 44/74/45 93/75/46
f 93/75/46 44/74/45 74/76/46
f 93/75/46 74/76/46 92/77/47
f 92/77/47 74/76/46 73/78/47
f 92/77/47 73/78/47 91/79/48
f 91/79/48 73/78/47 72/80/48
f 91/79/48 72/80/48 90/81/49
f 90/81/49 72/80/48 71/82/49
f 90/81/49 71/82/49 89/83/50
f 89/83/50 71/82/49 70/84/50
f 89/83/50 70/84/50 88/85/51
f 88/85/51 70/84/50 69/86/51
f 88/85/51 69/86/51 87/87/52
f 87/87/52 69/86/51 68/88/52
f 87/87/52 68/88/52 86/89/53
f 86/89/53 68/88/52 67/90/53
f 86/89/53 67/90/53 85/91/54
f 85/91/54 67/90/53 66/92/54
f 85/91/54 66/92/54 84/93/55
f 84/93/55 66/92/54 65/94/55
f 84/93/55 65/94/55 83/95/56
f 83/95/56 65/94/55 64/96/56
f 83/95/56 64/96/56 82/97/57
f 82/97/57 64/96/56 63/98/57
f 82/97/57 63/98/57 81/99/58
f 81/99/58 63/98/57 62/100/58
f 81/101/58 62/102/58 97/103/59
f 97/103/59 62/102/58 78/104/59
f 97/103/59 78/104/59 77/105/60
f 76/106/61 95/107/61 77/105/60
f 77/105/60 95/107/61 96/108/60
f 77/105/60 96/108/60 97/103/59
f 76/109/61 5/110/61 95/111/61
f 95/111/61 5/110/61 98/112/61
f 98/101/61 5/102/61 101/103/62
f 101/103/62 5/102/61 4/104/62
f 101/103/62 4/104/62 3/105/63
f 2/106/64 99/107/64 3/105/63
f 3/105/63 99/107/64 100/108/63
f 3/105/63 100/108/63 101/103/62
f 103/113/65 104/114/65 102/115/65
f 102/115/65 104/114/65 105/116/65
f 102/115/65 105/116/65 106/117/65
f 107/118/65 12/119/65 106/117/65
f 106/117/65 12/119/65 8/120/65
f 106/117/65 8/120/65 102/115/65
f 102/115/65 8/120/65 7/121/65
f 102/115/65 7/121/65 126/122/65
f 126/122/65 7/121/65 40/123/65
f 126/122/65 40/123/65 39/124/65
f 12/119/65 107/118/65 13/125/65
f 13/125/65 107/118/65 108/126/65
f 13/125/65 108/126/65 109/127/65
f 13/125/65 109/127/65 14/128/65
f 14/128/65 109/127/65 110/129/65
f 14/128/65 110/129/65 111/130/65
f 111/130/65 112/131/65 14/128/65
f 14/128/65 112/131/65 113/132/65
f 14/128/65 113/132/65 15/133/65
f 15/133/65 113/132/65 114/134/65
f 15/133/65 114/134/65 115/135/65
f 115/135/65 116/136/65 15/133/65
f 15/133/65 116/136/65 16/137/65
f 16/137/65 116/136/65 117/138/65
f 16/137/65 117/138/65 118/139/65
f 118/139/65 119/140/65 16/137/65
f 16/137/65 119/140/65 17/141/65
f 17/141/65 119/140/65 39/124/65
f 17/141/65 39/124/65 18/142/65
f 18/142/65 39/124/65 19/143/65
f 19/143/65 39/124/65 21/144/65
f 19/143/65 21/144/65 20/145/65
f 119/140/65 120/146/65 39/124/65
f 39/124/65 120/146/65 126/122/65
f 120/146/65 121/147/65 126/122/65
f 126/122/65 121/147/65 122/148/65
f 126/122/65 122/148/65 123/149/65
f 123/149/65 124/150/65 126/122/65
f 126/122/65 124/150/65 125/151/65
f 127/152/65 128/153/65 151/154/65
f 151/154/65 128/153/65 150/155/65
f 150/155/65 128/153/65 149/156/65
f 149/156/65 128/153/65 79/157/65
f 149/156/65 79/157/65 57/158/65
f 57/158/65 79/157/65 58/159/65
f 58/159/65 79/157/65 59/160/65
f 59/160/65 79/157/65 61/161/65
f 59/160/65 61/161/65 60/162/65
f 79/157/65 128/153/65 80/163/65
f 80/163/65 128/153/65 129/164/65
f 80/163/65 129/164/65 47/165/65
f 47/165/65 129/164/65 48/166/65
f 48/166/65 129/164/65 135/167/65
f 48/166/65 135/167/65 136/168/65
f 130/169/65 131/170/65 129/164/65
f 129/164/65 131/170/65 132/171/65
f 129/164/65 132/171/65 133/172/65
f 133/172/65 134/173/65 129/164/65
f 129/164/65 134/173/65 135/167/65
f 137/174/65 53/175/65 136/168/65
f 136/168/65 53/175/65 52/176/65
f 136/168/65 52/176/65 48/166/65
f 48/166/65 52/176/65 51/177/65
f 48/166/65 51/177/65 50/178/65
f 137/174/65 138/179/65 53/175/65
f 53/175/65 138/179/65 139/180/65
f 53/175/65 139/180/65 54/181/65
f 54/181/65 139/180/65 140/182/65
f 54/181/65 140/182/65 141/183/65
f 141/183/65 142/184/65 54/181/65
f 54/181/65 142/184/65 55/185/65
f 55/185/65 142/184/65 143/186/65
f 55/185/65 143/186/65 144/187/65
f 144/187/65 145/188/65 55/185/65
f 55/185/65 145/188/65 146/189/65
f 55/185/65 146/189/65 56/190/65
f 56/190/65 146/189/65 147/191/65
f 56/190/65 147/191/65 148/192/65
f 56/190/65 148/192/65 57/158/65
f 57/158/65 148/192/65 149/156/65
f 9/193/65 1/194/65 10/195/65
f 10/195/65 1/194/65 8/120/65
f 10/195/65 8/120/65 11/196/65
f 11/196/65 8/120/65 12/119/65
f 40/123/65 7/121/65 35/197/65
f 35/197/65 7/121/65 6/198/65
f 35/197/65 6/198/65 75/199/65
f 80/163/65 47/165/65 75/199/65
f 75/199/65 47/165/65 41/200/65
f 75/199/65 41/200/65 35/197/65
f 49/201/65 43/202/65 50/178/65
f 50/178/65 43/202/65 48/166/65
f 152/1/66 98/2/66 155/3/67
f 155/3/67 98/2/66 101/4/67
f 155/3/67 101/4/67 100/5/68
f 99/6/69 153/7/70 100/5/68
f 100/5/68 153/7/70 154/8/68
f 100/5/68 154/8/68 155/3/67
f 152/40/66 156/39/66 98/38/66
f 98/38/66 156/39/66 95/37/66
f 157/1/71 81/2/72 159/3/73
f 159/3/73 81/2/72 97/4/73
f 159/3/73 97/4/73 96/5/74
f 95/6/66 156/7/66 96/5/74
f 96/5/74 156/7/66 158/8/74
f 96/5/74 158/8/74 159/3/73
f 81/41/72 157/42/71 82/43/75
f 82/43/75 157/42/71 160/44/75
f 82/43/75 160/44/75 83/45/76
f 83/45/76 160/44/75 161/46/76
f 83/45/76 161/46/76 84/47/77
f 84/47/77 161/46/76 162/48/77
f 84/47/77 162/48/77 85/49/78
f 85/49/78 162/48/77 163/50/78
f 85/49/78 163/50/78 86/51/79
f 86/51/79 163/50/78 164/52/79
f 86/51/79 164/52/79 87/53/80
f 87/53/80 164/52/79 165/54/80
f 87/53/80 165/54/80 88/55/81
f 88/55/81 165/54/80 166/56/81
f 88/55/81 166/56/81 89/57/82
f 89/57/82 166/56/81 167/58/82
f 89/57/82 167/58/82 90/59/83
f 90/59/83 167/58/82 168/60/83
f 90/59/83 168/60/83 91/61/84
f 91/61/84 168/60/83 169/62/84
f 91/61/84 169/62/84 92/63/85
f 92/63/85 169/62/84 170/64/85
f 92/63/85 170/64/85 93/65/86
f 93/65/86 170/64/85 171/66/86
f 93/65/86 171/66/86 94/67/87
f 94/67/87 171/66/86 172/68/88
f 173/1/89 174/2/90 178/3/91
f 178/3/91 174/2/90 175/4/91
f 178/3/91 175/4/91 176/5/92
f 94/6/87 172/7/88 176/5/92
f 176/5/92 172/7/88 177/8/92
f 176/5/92 177/8/92 178/3/91
f 173/72/89 179/71/89 174/70/90
f 174/70/90 179/71/89 180/69/89
f 181/1/93 182/2/94 186/3/95
f 186/3/95 182/2/94 183/4/95
f 186/3/95 183/4/95 184/5/96
f 180/6/89 179/7/89 184/5/96
f 184/5/96 179/7/89 185/8/96
f 184/5/96 185/8/96 186/3/95
f 182/203/94 181/204/93 210/205/97
f 210/205/97 181/204/93 187/206/97
f 210/205/97 187/206/97 209/207/98
f 209/207/98 187/206/97 188/208/98
f 209/207/98 188/208/98 208/209/99
f 208/209/99 188/208/98 189/210/99
f 208/209/99 189/210/99 207/211/100
f 207/211/100 189/210/99 190/212/101
f 207/211/100 190/212/101 206/213/102
f 206/213/102 190/212/101 191/214/102
f 206/213/102 191/214/102 205/215/103
f 205/215/103 191/214/102 192/216/103
f 205/215/103 192/216/103 204/217/104
f 204/217/104 192/216/103 193/218/104
f 204/217/104 193/218/104 203/219/105
f 203/219/105 193/218/104 194/220/105
f 203/219/105 194/220/105 202/221/106
f 202/221/106 194/220/105 195/222/106
f 202/221/106 195/222/106 201/223/107
f 201/223/107 195/222/106 196/224/107
f 201/223/107 196/224/107 200/225/108
f 200/225/108 196/224/107 197/226/109
f 200/225/108 197/226/109 199/227/110
f 199/227/110 197/226/109 198/228/110
f 199/227/110 198/228/110 99/229/69
f 99/229/69 198/228/110 153/230/70
f 36/109/111 42/110/111 180/111/111
f 180/111/111 42/110/111 174/112/111
f 182/101/112 22/102/112 183/103/113
f 183/103/113 22/102/112 38/104/113
f 183/103/113 38/104/113 37/105/114
f 36/106/111 180/107/111 37/105/114
f 37/105/114 180/107/111 184/108/114
f 37/105/114 184/108/114 183/103/113
f 99/231/64 2/232/64 199/233/115
f 199/233/115 2/232/64 34/234/115
f 199/233/115 34/234/115 200/235/116
f 200/235/116 34/234/115 33/236/117
f 200/235/116 33/236/117 201/237/118
f 201/237/118 33/236/117 32/238/118
f 201/237/118 32/238/118 202/239/119
f 202/239/119 32/238/118 31/240/119
f 202/239/119 31/240/119 203/241/120
f 203/241/120 31/240/119 30/242/120
f 203/241/120 30/242/120 204/243/121
f 204/243/121 30/242/120 29/244/121
f 204/243/121 29/244/121 205/245/122
f 205/245/122 29/244/121 28/246/122
f 205/245/122 28/246/122 206/247/123
f 206/247/123 28/246/122 27/248/123
f 206/247/123 27/248/123 207/249/124
f 207/249/124 27/248/123 26/250/124
f 207/249/124 26/250/124 208/251/125
f 208/251/125 26/250/124 25/252/125
f 208/251/125 25/252/125 209/253/126
f 209/253/126 25/252/125 24/254/126
f 209/253/126 24/254/126 210/255/127
f 210/255/127 24/254/126 23/256/127
f 210/255/127 23/256/127 182/257/112
f 182/257/112 23/256/127 22/258/112
f 211/259/128 212/260/128 235/261/128
f 235/261/128 212/260/128 234/262/128
f 234/262/128 212/260/128 233/263/128
f 233/263/128 212/260/128 154/124/128
f 233/263/128 154/124/128 195/141/128
f 195/141/128 154/124/128 196/142/128
f 196/142/128 154/124/128 197/143/128
f 197/143/128 154/124/128 153/144/128
f 197/143/128 153/144/128 198/145/128
f 154/124/128 212/260/128 155/123/128
f 155/123/128 212/260/128 213/264/128
f 155/123/128 213/264/128 185/121/128
f 185/121/128 213/264/128 186/120/128
f 186/120/128 213/264/128 219/265/128
f 186/120/128 219/265/128 220/266/128
f 214/267/128 215/268/128 213/264/128
f 213/264/128 215/268/128 216/269/128
f 213/264/128 216/269/128 217/270/128
f 217/270/128 218/271/128 213/264/128
f 213/264/128 218/271/128 219/265/128
f 221/272/129 191/125/128 220/266/128
f 220/266/128 191/125/128 190/119/128
f 220/266/128 190/119/128 186/120/128
f 186/120/128 190/119/128 189/196/128
f 186/120/128 189/196/128 188/195/128
f 221/272/129 222/273/128 191/125/128
f 191/125/128 222/273/128 223/274/128
f 191/125/128 223/274/128 192/128/128
f 192/128/128 223/274/128 224/275/128
f 192/128/128 224/275/128 225/276/128
f 225/276/128 226/277/128 192/128/128
f 192/128/128 226/277/128 193/133/128
f 193/133/128 226/277/128 227/278/128
f 193/133/128 227/278/128 228/279/128
f 228/279/128 229/280/128 193/133/128
f 193/133/128 229/280/128 230/281/128
f 193/133/128 230/281/128 194/137/128
f 194/137/128 230/281/128 231/282/128
f 194/137/128 231/282/128 232/283/128
f 194/137/128 232/283/128 195/141/128
f 195/141/128 232/283/128 233/263/128
f 237/284/128 238/285/128 236/286/128
f 236/286/128 238/285/128 239/287/128
f 236/286/128 239/287/128 240/288/128
f 241/289/128 163/176/128 240/288/128
f 240/288/128 163/176/128 159/166/128
f 240/288/128 159/166/128 236/286/128
f 236/286/128 159/166/128 158/165/128
f 236/286/128 158/165/128 260/290/128
f 260/290/128 158/165/128 178/163/128
f 260/290/128 178/163/128 177/157/128
f 163/176/128 241/289/128 164/175/128
f 164/175/128 241/289/128 242/291/128
f 164/175/128 242/291/128 243/292/128
f 164/175/128 243/292/128 165/181/128
f 165/181/128 243/292/128 244/293/128
f 165/181/128 244/293/128 245/294/128
f 245/294/128 246/295/128 165/181/128
f 165/181/128 246/295/128 247/296/128
f 165/181/128 247/296/128 166/185/128
f 166/185/128 247/296/128 248/297/128
f 166/185/128 248/297/128 249/298/128
f 249/298/128 250/299/128 166/185/128
f 166/185/128 250/299/128 167/190/128
f 167/190/128 250/299/128 251/300/128
f 167/190/128 251/300/128 252/301/130
f 252/301/130 253/302/128 167/190/128
f 167/190/128 253/302/128 168/158/128
f 168/158/128 253/302/128 177/157/128
f 168/158/128 177/157/128 169/159/128
f 169/159/128 177/157/128 170/160/128
f 170/160/128 177/157/128 172/161/128
f 170/160/128 172/161/128 171/162/128
f 253/302/128 254/303/128 177/157/128
f 177/157/128 254/303/128 260/290/128
f 254/303/128 255/304/128 260/290/128
f 260/290/128 255/304/128 256/305/128
f 260/290/128 256/305/128 257/306/128
f 257/306/128 258/307/128 260/290/128
f 260/290/128 258/307/128 259/308/128
f 155/123/128 185/121/128 152/197/128
f 152/197/128 185/121/128 179/198/128
f 152/197/128 179/198/128 173/199/128
f 187/193/128 181/194/128 188/195/128
f 188/195/128 181/194/128 186/120/128
f 178/163/128 158/165/128 173/199/128
f 173/199/128 158/165/128 156/200/128
f 173/199/128 156/200/128 152/197/128
f 163/176/128 162/177/128 159/166/128
f 159/166/128 162/177/128 161/178/128
f 159/166/128 161/178/128 157/202/128
f 157/202/128 161/178/128 160/201/128
f 174/101/111 42/102/111 175/103/131
f 175/103/131 42/102/111 46/104/131
f 175/103/131 46/104/131 45/105/132
f 44/106/45 94/107/45 45/105/132
f 45/105/132 94/107/45 176/108/132
f 45/105/132 176/108/132 175/103/131
f 103/309/133 211/310/133 104/311/134
f 104/311/134 211/310/133 235/312/134
f 104/311/134 235/312/134 105/313/135
f 105/313/135 235/312/134 234/314/135
f 105/313/135 234/314/135 106/315/136
f 106/315/136 234/314/135 233/316/136
f 106/315/136 233/316/136 107/317/137
f 107/317/137 233/316/136 232/318/137
f 107/317/137 232/318/137 108/319/138
f 108/319/138 232/318/137 231/320/138
f 108/319/138 231/320/138 109/321/139
f 109/321/139 231/320/138 230/322/139
f 109/321/139 230/322/139 110/323/140
f 110/323/140 230/322/139 229/324/140
f 110/323/140 229/324/140 111/325/141
f 111/325/141 229/324/140 228/326/141
f 111/325/141 228/326/141 112/327/142
f 112/327/142 228/326/141 227/328/142
f 112/327/142 227/328/142 113/329/143
f 113/329/143 227/328/142 226/330/143
f 113/329/143 226/330/143 114/331/144
f 114/331/144 226/330/143 225/332/144
f 114/331/144 225/332/144 115/333/145
f 115/333/145 225/332/144 224/334/145
f 115/333/145 224/334/145 116/335/146
f 116/335/146 224/334/145 223/336/146
f 116/335/146 223/336/146 117/337/147
f 117/337/147 223/336/146 222/338/147
f 117/337/147 222/338/147 118/339/148
f 118/339/148 222/338/147 221/340/149
f 118/339/148 221/340/149 119/341/150
f 119/341/150 221/340/149 220/342/150
f 119/341/150 220/342/150 120/343/151
f 120/343/151 220/342/150 219/344/151
f 120/343/151 219/344/151 121/345/152
f 121/345/152 219/344/151 218/346/152
f 121/345/152 218/346/152 122/347/153
f 122/347/153 218/346/152 217/348/153
f 122/347/153 217/348/153 123/349/154
f 123/349/154 217/348/153 216/350/154
f 123/349/154 216/350/154 124/351/155
f 124/351/155 216/350/154 215/352/155
f 124/351/155 215/352/155 125/353/156
f 125/353/156 215/352/155 214/354/156
f 214/355/61 213/356/61 125/357/61
f 125/357/61 213/356/61 126/358/61
f 213/359/157 212/356/157 126/360/157
f 126/360/157 212/356/157 102/358/157
f 212/361/111 211/356/111 102/362/111
f 102/362/111 211/356/111 103/358/111
f 236/359/158 260/356/158 128/360/158
f 128/360/158 260/356/158 129/358/158
f 260/355/61 259/356/61 129/357/61
f 129/357/61 259/356/61 130/358/61
f 130/363/159 259/364/159 131/365/160
f 131/365/160 259/364/159 258/366/160
f 131/365/160 258/366/160 132/367/161
f 132/367/161 258/366/160 257/368/161
f 132/367/161 257/368/161 133/369/162
f 133/369/162 257/368/161 256/370/162
f 133/369/162 256/370/162 134/371/163
f 134/371/163 256/370/162 255/372/163
f 134/371/163 255/372/163 135/373/164
f 135/373/164 255/372/163 254/374/164
f 135/373/164 254/374/164 136/375/165
f 136/375/165 254/374/164 253/376/165
f 136/375/165 253/376/165 137/377/166
f 137/377/166 253/376/165 252/378/166
f 137/377/166 252/378/166 138/379/167
f 138/379/167 252/378/166 251/380/167
f 138/379/167 251/380/167 139/381/168
f 139/381/168 251/380/167 250/382/168
f 139/381/168 250/382/168 140/383/169
f 140/383/169 250/382/168 249/384/169
f 140/383/169 249/384/169 141/385/170
f 141/385/170 249/384/169 248/386/170
f 141/385/170 248/386/170 142/387/171
f 142/387/171 248/386/170 247/388/171
f 142/387/171 247/388/171 143/389/172
f 143/389/172 247/388/171 246/390/172
f 143/389/172 246/390/172 144/391/173
f 144/391/173 246/390/172 245/392/173
f 144/391/173 245/392/173 145/393/174
f 145/393/174 245/392/173 244/394/174
f 145/393/174 244/394/174 146/395/175
f 146/395/175 244/394/174 243/396/175
f 146/395/175 243/396/175 147/397/176
f 147/397/176 243/396/175 242/398/176
f 147/397/176 242/398/176 148/399/177
f 148/399/177 242/398/176 241/400/177
f 148/399/177 241/400/177 149/401/178
f 149/401/178 241/400/177 240/402/178
f 149/401/178 240/402/178 150/403/179
f 150/403/179 240/402/178 239/404/179
f 150/403/179 239/404/179 151/405/180
f 151/405/180 239/404/179 238/406/180
f 151/405/180 238/406/180 127/407/181
f 127/407/181 238/406/180 237/408/182
f 237/361/111 236/356/111 127/362/111
f 127/362/111 236/356/111 128/358/111
