# WaveFront *.obj file (generated by Autodesk ATF)

mtllib object_1.mtl

g Body1

v 8.999662 -4.880452 20.000000
v 8.962644 -4.020804 20.000000
v 8.851863 -3.167521 20.000000
v 8.668141 -2.326919 20.000000
v 8.412836 -1.505223 20.000000
v 8.087839 -0.708516 20.000000
v 7.695556 0.057303 20.000000
v 7.238892 0.786565 20.000000
v 6.721228 1.473871 20.000000
v 6.146396 2.114131 20.000000
v 5.518652 2.702606 20.000000
v 4.842644 3.234938 20.000000
v 4.123377 3.707187 20.000000
v 3.366175 4.115857 20.000000
v 2.576645 4.457920 20.000000
v 1.760632 4.730846 20.000000
v 0.924178 4.932613 20.000000
v 0.073476 5.061727 20.000000
v -0.785177 5.117233 20.000000
v -1.645422 5.098719 20.000000
v -2.500892 5.006324 20.000000
v -3.345251 4.840730 20.000000
v -4.172250 4.603164 20.000000
v -4.975766 4.295384 20.000000
v -5.749848 3.919670 20.000000
v -6.488767 3.478803 20.000000
v -7.187052 2.976046 20.000000
v -7.839532 2.415123 20.000000
v -8.441377 1.800186 20.000000
v -8.988131 1.135788 20.000000
v -9.475747 0.426848 20.000000
v -9.900613 -0.321385 20.000000
v -10.259585 -1.103373 20.000000
v -10.550005 -1.913324 20.000000
v -10.769723 -2.745243 20.000000
v -10.917111 -3.592970 20.000000
v -10.991079 -4.450230 20.000000
v -10.991079 -5.310674 20.000000
v -10.917111 -6.167934 20.000000
v -10.769723 -7.015661 20.000000
v -10.550005 -7.847580 20.000000
v -10.259585 -8.657532 20.000000
v -9.900613 -9.439519 20.000000
v -9.475747 -10.187753 20.000000
v -8.988131 -10.896693 20.000000
v -8.441377 -11.561091 20.000000
v -7.839532 -12.176028 20.000000
v -7.187052 -12.736951 20.000000
v -6.488767 -13.239707 20.000000
v -5.749848 -13.680574 20.000000
v -4.975766 -14.056288 20.000000
v -4.172250 -14.364068 20.000000
v -3.345251 -14.601634 20.000000
v -2.500892 -14.767228 20.000000
v -1.645422 -14.859624 20.000000
v -0.785177 -14.878137 20.000000
v 0.073476 -14.822631 20.000000
v 0.924178 -14.693517 20.000000
v 1.760632 -14.491750 20.000000
v 2.576645 -14.218824 20.000000
v 3.366175 -13.876761 20.000000
v 4.123377 -13.468092 20.000000
v 4.842644 -12.995843 20.000000
v 5.518652 -12.463510 20.000000
v 6.146396 -11.875035 20.000000
v 6.721228 -11.234775 20.000000
v 7.238892 -10.547470 20.000000
v 7.695556 -9.818208 20.000000
v 8.087839 -9.052388 20.000000
v 8.412836 -8.255681 20.000000
v 8.668141 -7.433985 20.000000
v 8.851863 -6.593384 20.000000
v 8.962644 -5.740100 20.000000
v 8.999662 -4.880452 0.000000
v 8.962644 -5.740100 0.000000
v 8.851863 -6.593384 0.000000
v 8.668141 -7.433985 0.000000
v 8.412836 -8.255681 0.000000
v 8.087839 -9.052388 0.000000
v 7.695556 -9.818208 0.000000
v 7.238892 -10.547470 0.000000
v 6.721228 -11.234775 0.000000
v 6.146396 -11.875035 0.000000
v 5.518652 -12.463510 0.000000
v 4.842644 -12.995843 0.000000
v 4.123377 -13.468092 0.000000
v 3.366175 -13.876761 0.000000
v 2.576645 -14.218824 0.000000
v 1.760632 -14.491750 0.000000
v 0.924178 -14.693517 0.000000
v 0.073476 -14.822631 0.000000
v -0.785177 -14.878137 0.000000
v -1.645422 -14.859624 0.000000
v -2.500892 -14.767228 0.000000
v -3.345251 -14.601634 0.000000
v -4.172250 -14.364068 0.000000
v -4.975766 -14.056288 0.000000
v -5.749848 -13.680574 0.000000
v -6.488767 -13.239707 0.000000
v -7.187052 -12.736951 0.000000
v -7.839532 -12.176028 0.000000
v -8.441377 -11.561091 0.000000
v -8.988131 -10.896693 0.000000
v -9.475747 -10.187753 0.000000
v -9.900613 -9.439519 0.000000
v -10.259585 -8.657532 0.000000
v -10.550005 -7.847580 0.000000
v -10.769723 -7.015661 0.000000
v -10.917111 -6.167934 0.000000
v -10.991079 -5.310674 0.000000
v -10.991079 -4.450230 0.000000
v -10.917111 -3.592970 0.000000
v -10.769723 -2.745243 0.000000
v -10.550005 -1.913324 0.000000
v -10.259585 -1.103373 0.000000
v -9.900613 -0.321385 0.000000
v -9.475747 0.426848 0.000000
v -8.988131 1.135788 0.000000
v -8.441377 1.800186 0.000000
v -7.839532 2.415123 0.000000
v -7.187052 2.976046 0.000000
v -6.488767 3.478803 0.000000
v -5.749848 3.919670 0.000000
v -4.975766 4.295384 0.000000
v -4.172250 4.603164 0.000000
v -3.345251 4.840730 0.000000
v -2.500892 5.006324 0.000000
v -1.645422 5.098719 0.000000
v -0.785177 5.117233 0.000000
v 0.073476 5.061727 0.000000
v 0.924178 4.932613 0.000000
v 1.760632 4.730846 0.000000
v 2.576645 4.457920 0.000000
v 3.366175 4.115857 0.000000
v 4.123377 3.707187 0.000000
v 4.842644 3.234938 0.000000
v 5.518652 2.702606 0.000000
v 6.146396 2.114131 0.000000
v 6.721228 1.473871 0.000000
v 7.238892 0.786565 0.000000
v 7.695556 0.057303 0.000000
v 8.087839 -0.708516 0.000000
v 8.412836 -1.505223 0.000000
v 8.668141 -2.326919 0.000000
v 8.851863 -3.167521 0.000000
v 8.962644 -4.020804 0.000000
v -20.000000 -20.000000 0.000000
v 20.000000 -20.000000 0.000000
v 20.000000 -20.000000 20.000000
v -20.000000 -20.000000 20.000000
v -20.000000 20.000000 0.000000
v -20.000000 20.000000 20.000000
v 20.000000 20.000000 0.000000
v 20.000000 20.000000 20.000000
vt -1.000000 -0.086071 0.000000
vt 1.000000 -0.086071 0.000000
vt -1.000000 0.000000 0.000000
vt 1.000000 0.000000 0.000000
vt -1.000000 0.086071 0.000000
vt 1.000000 0.086071 0.000000
vt 1.000000 0.172142 0.000000
vt -1.000000 -0.172142 0.000000
vt 1.000000 -0.172142 0.000000
vt -1.000000 -0.258213 0.000000
vt 1.000000 -0.258213 0.000000
vt -1.000000 -0.344284 0.000000
vt 1.000000 -0.344284 0.000000
vt -1.000000 -0.430355 0.000000
vt 1.000000 -0.430355 0.000000
vt -1.000000 -0.516426 0.000000
vt 1.000000 -0.516426 0.000000
vt -1.000000 -0.602497 0.000000
vt 1.000000 -0.602497 0.000000
vt -1.000000 -0.688568 0.000000
vt 1.000000 -0.688568 0.000000
vt -1.000000 -0.774639 0.000000
vt 1.000000 -0.774639 0.000000
vt -1.000000 -0.860710 0.000000
vt 1.000000 -0.860710 0.000000
vt -1.000000 -0.946781 0.000000
vt 1.000000 -0.946781 0.000000
vt -1.000000 -1.032852 0.000000
vt 1.000000 -1.032852 0.000000
vt -1.000000 -1.118923 0.000000
vt 1.000000 -1.118923 0.000000
vt -1.000000 -1.204994 0.000000
vt 1.000000 -1.204994 0.000000
vt -1.000000 -1.291065 0.000000
vt 1.000000 -1.291065 0.000000
vt -1.000000 -1.377137 0.000000
vt 1.000000 -1.377137 0.000000
vt -1.000000 -1.463208 0.000000
vt 1.000000 -1.463208 0.000000
vt -1.000000 -1.549279 0.000000
vt 1.000000 -1.549279 0.000000
vt -1.000000 -1.635350 0.000000
vt 1.000000 -1.635350 0.000000
vt -1.000000 -1.721421 0.000000
vt 1.000000 -1.721421 0.000000
vt -1.000000 -1.807492 0.000000
vt 1.000000 -1.807492 0.000000
vt -1.000000 -1.893563 0.000000
vt 1.000000 -1.893563 0.000000
vt -1.000000 -1.979634 0.000000
vt 1.000000 -1.979634 0.000000
vt -1.000000 -2.065705 0.000000
vt 1.000000 -2.065705 0.000000
vt -1.000000 -2.151776 0.000000
vt 1.000000 -2.151776 0.000000
vt -1.000000 -2.237847 0.000000
vt 1.000000 -2.237847 0.000000
vt -1.000000 -2.323918 0.000000
vt 1.000000 -2.323918 0.000000
vt -1.000000 -2.409989 0.000000
vt 1.000000 -2.409989 0.000000
vt -1.000000 -2.496060 0.000000
vt 1.000000 -2.496060 0.000000
vt -1.000000 -2.582131 0.000000
vt 1.000000 -2.582131 0.000000
vt -1.000000 -2.668202 0.000000
vt 1.000000 -2.668202 0.000000
vt -1.000000 -2.754273 0.000000
vt 1.000000 -2.754273 0.000000
vt -1.000000 -2.840344 0.000000
vt 1.000000 -2.840344 0.000000
vt -1.000000 -2.926415 0.000000
vt 1.000000 -2.926415 0.000000
vt -1.000000 -3.012486 0.000000
vt 1.000000 -3.012486 0.000000
vt -1.000000 -3.098557 0.000000
vt 1.000000 -3.098557 0.000000
vt -1.000000 -3.184628 0.000000
vt 1.000000 -3.184628 0.000000
vt 1.000000 3.098557 0.000000
vt -1.000000 3.098557 0.000000
vt -1.000000 3.012486 0.000000
vt 1.000000 3.012486 0.000000
vt -1.000000 2.926415 0.000000
vt 1.000000 2.926415 0.000000
vt -1.000000 2.840344 0.000000
vt 1.000000 2.840344 0.000000
vt -1.000000 2.754273 0.000000
vt 1.000000 2.754273 0.000000
vt -1.000000 2.668202 0.000000
vt 1.000000 2.668202 0.000000
vt -1.000000 2.582131 0.000000
vt 1.000000 2.582131 0.000000
vt -1.000000 2.496060 0.000000
vt 1.000000 2.496060 0.000000
vt -1.000000 2.409989 0.000000
vt 1.000000 2.409989 0.000000
vt -1.000000 2.323918 0.000000
vt 1.000000 2.323918 0.000000
vt -1.000000 2.237847 0.000000
vt 1.000000 2.237847 0.000000
vt -1.000000 2.151776 0.000000
vt 1.000000 2.151776 0.000000
vt -1.000000 2.065705 0.000000
vt 1.000000 2.065705 0.000000
vt -1.000000 1.979634 0.000000
vt 1.000000 1.979634 0.000000
vt -1.000000 1.893563 0.000000
vt 1.000000 1.893563 0.000000
vt -1.000000 1.807492 0.000000
vt 1.000000 1.807492 0.000000
vt -1.000000 1.721421 0.000000
vt 1.000000 1.721421 0.000000
vt -1.000000 1.635350 0.000000
vt 1.000000 1.635350 0.000000
vt -1.000000 1.549279 0.000000
vt 1.000000 1.549279 0.000000
vt -1.000000 1.463208 0.000000
vt 1.000000 1.463208 0.000000
vt -1.000000 1.377137 0.000000
vt 1.000000 1.377137 0.000000
vt -1.000000 1.291065 0.000000
vt 1.000000 1.291065 0.000000
vt -1.000000 1.204994 0.000000
vt 1.000000 1.204994 0.000000
vt -1.000000 1.118923 0.000000
vt 1.000000 1.118923 0.000000
vt -1.000000 1.032852 0.000000
vt 1.000000 1.032852 0.000000
vt -1.000000 0.946781 0.000000
vt 1.000000 0.946781 0.000000
vt -1.000000 0.860710 0.000000
vt 1.000000 0.860710 0.000000
vt -1.000000 0.774639 0.000000
vt 1.000000 0.774639 0.000000
vt -1.000000 0.688568 0.000000
vt 1.000000 0.688568 0.000000
vt -1.000000 0.602497 0.000000
vt 1.000000 0.602497 0.000000
vt -1.000000 0.516426 0.000000
vt 1.000000 0.516426 0.000000
vt -1.000000 0.430355 0.000000
vt 1.000000 0.430355 0.000000
vt -1.000000 0.344284 0.000000
vt 1.000000 0.344284 0.000000
vt -1.000000 0.258213 0.000000
vt 1.000000 0.258213 0.000000
vt -1.000000 0.172142 0.000000
vt 0.000000 0.000000 0.000000
vt 4.000000 0.000000 0.000000
vt 0.000000 2.000000 0.000000
vt 4.000000 2.000000 0.000000
vt 0.000000 0.000000 0.000000
vt 4.000000 0.000000 0.000000
vt 0.000000 2.000000 0.000000
vt 4.000000 2.000000 0.000000
vt 0.000000 0.000000 0.000000
vt 4.000000 0.000000 0.000000
vt 0.000000 2.000000 0.000000
vt 4.000000 2.000000 0.000000
vt 0.000000 0.000000 0.000000
vt 4.000000 0.000000 0.000000
vt 0.000000 2.000000 0.000000
vt 4.000000 2.000000 0.000000
vt 0.896264 -0.402080 0.000000
vt 0.899966 -0.488045 0.000000
vt 2.000000 -2.000000 0.000000
vt 0.896264 -0.574010 0.000000
vt 0.885186 -0.659338 0.000000
vt 0.866814 -0.743399 0.000000
vt 0.841284 -0.825568 0.000000
vt 0.808784 -0.905239 0.000000
vt 0.769556 -0.981821 0.000000
vt 0.723889 -1.054747 0.000000
vt 0.672123 -1.123478 0.000000
vt 0.614640 -1.187504 0.000000
vt 0.551865 -1.246351 0.000000
vt 0.484264 -1.299584 0.000000
vt 0.412338 -1.346809 0.000000
vt 0.336617 -1.387676 0.000000
vt 0.257664 -1.421882 0.000000
vt 0.176063 -1.449175 0.000000
vt 0.092418 -1.469352 0.000000
vt 0.007348 -1.482263 0.000000
vt -0.078518 -1.487814 0.000000
vt -2.000000 -2.000000 0.000000
vt -0.164542 -1.485962 0.000000
vt -0.250089 -1.476723 0.000000
vt -0.334525 -1.460163 0.000000
vt -0.417225 -1.436407 0.000000
vt -0.497577 -1.405629 0.000000
vt -0.574985 -1.368057 0.000000
vt -0.648877 -1.323971 0.000000
vt -0.718705 -1.273695 0.000000
vt -0.783953 -1.217603 0.000000
vt -0.844138 -1.156109 0.000000
vt -0.898813 -1.089669 0.000000
vt -0.947575 -1.018775 0.000000
vt -0.990061 -0.943952 0.000000
vt -1.025959 -0.865753 0.000000
vt -1.055001 -0.784758 0.000000
vt -1.076972 -0.701566 0.000000
vt -1.091711 -0.616793 0.000000
vt -1.099108 -0.531067 0.000000
vt -1.099108 -0.445023 0.000000
vt -1.091711 -0.359297 0.000000
vt -2.000000 2.000000 0.000000
vt -1.076972 -0.274524 0.000000
vt -1.055001 -0.191332 0.000000
vt -1.025959 -0.110337 0.000000
vt -0.990061 -0.032139 0.000000
vt -0.947575 0.042685 0.000000
vt -0.898813 0.113579 0.000000
vt -0.844138 0.180019 0.000000
vt -0.783953 0.241512 0.000000
vt -0.718705 0.297605 0.000000
vt -0.648877 0.347880 0.000000
vt -0.574985 0.391967 0.000000
vt -0.497577 0.429538 0.000000
vt -0.417225 0.460316 0.000000
vt -0.334525 0.484073 0.000000
vt -0.250089 0.500632 0.000000
vt -0.164542 0.509872 0.000000
vt -0.078518 0.511723 0.000000
vt 2.000000 2.000000 0.000000
vt 0.007348 0.506173 0.000000
vt 0.092418 0.493261 0.000000
vt 0.176063 0.473085 0.000000
vt 0.257664 0.445792 0.000000
vt 0.336617 0.411586 0.000000
vt 0.412338 0.370719 0.000000
vt 0.484264 0.323494 0.000000
vt 0.551865 0.270261 0.000000
vt 0.614640 0.211413 0.000000
vt 0.672123 0.147387 0.000000
vt 0.723889 0.078657 0.000000
vt 0.769556 0.005730 0.000000
vt 0.808784 -0.070852 0.000000
vt 0.841284 -0.150522 0.000000
vt 0.866814 -0.232692 0.000000
vt 0.885186 -0.316752 0.000000
vt -0.896264 -0.574010 0.000000
vt -0.899966 -0.488045 0.000000
vt -2.000000 -2.000000 0.000000
vt -0.896264 -0.402080 0.000000
vt -0.885186 -0.316752 0.000000
vt -2.000000 2.000000 0.000000
vt -0.866814 -0.232692 0.000000
vt -0.841284 -0.150522 0.000000
vt -0.808784 -0.070852 0.000000
vt -0.769556 0.005730 0.000000
vt -0.723889 0.078657 0.000000
vt -0.672123 0.147387 0.000000
vt -0.614640 0.211413 0.000000
vt -0.551865 0.270261 0.000000
vt -0.484264 0.323494 0.000000
vt -0.412338 0.370719 0.000000
vt -0.336617 0.411586 0.000000
vt -0.257664 0.445792 0.000000
vt -0.176063 0.473085 0.000000
vt -0.092418 0.493261 0.000000
vt -0.007348 0.506173 0.000000
vt 0.078518 0.511723 0.000000
vt 2.000000 2.000000 0.000000
vt 0.164542 0.509872 0.000000
vt 0.250089 0.500632 0.000000
vt 0.334525 0.484073 0.000000
vt 0.417225 0.460316 0.000000
vt 0.497577 0.429538 0.000000
vt 0.574985 0.391967 0.000000
vt 0.648877 0.347880 0.000000
vt 0.718705 0.297605 0.000000
vt 0.783953 0.241512 0.000000
vt 0.844138 0.180019 0.000000
vt 0.898813 0.113579 0.000000
vt 0.947575 0.042685 0.000000
vt 0.990061 -0.032139 0.000000
vt 1.025959 -0.110337 0.000000
vt 1.055001 -0.191332 0.000000
vt 1.076972 -0.274524 0.000000
vt 1.091711 -0.359297 0.000000
vt 2.000000 -2.000000 0.000000
vt 1.099108 -0.445023 0.000000
vt 1.099108 -0.531067 0.000000
vt 1.091711 -0.616793 0.000000
vt 1.076972 -0.701566 0.000000
vt 1.055001 -0.784758 0.000000
vt 1.025959 -0.865753 0.000000
vt 0.990061 -0.943952 0.000000
vt 0.947575 -1.018775 0.000000
vt 0.898813 -1.089669 0.000000
vt 0.844138 -1.156109 0.000000
vt 0.783953 -1.217603 0.000000
vt 0.718705 -1.273695 0.000000
vt 0.648877 -1.323971 0.000000
vt 0.574985 -1.368057 0.000000
vt 0.497577 -1.405629 0.000000
vt 0.417225 -1.436407 0.000000
vt 0.334525 -1.460163 0.000000
vt 0.250089 -1.476723 0.000000
vt 0.164542 -1.485962 0.000000
vt 0.078518 -1.487814 0.000000
vt -0.007348 -1.482263 0.000000
vt -0.092418 -1.469352 0.000000
vt -0.176063 -1.449175 0.000000
vt -0.257664 -1.421882 0.000000
vt -0.336617 -1.387676 0.000000
vt -0.412338 -1.346809 0.000000
vt -0.484264 -1.299584 0.000000
vt -0.551865 -1.246351 0.000000
vt -0.614640 -1.187504 0.000000
vt -0.672123 -1.123478 0.000000
vt -0.723889 -1.054747 0.000000
vt -0.769556 -0.981821 0.000000
vt -0.808784 -0.905239 0.000000
vt -0.841284 -0.825568 0.000000
vt -0.866814 -0.743399 0.000000
vt -0.885186 -0.659338 0.000000
vn -0.099630 -0.008596 0.000000
vn -0.099630 -0.008596 0.000000
vn -0.100000 0.000000 0.000000
vn -0.100000 0.000000 0.000000
vn -0.099630 0.008596 0.000000
vn -0.099630 0.008596 0.000000
vn -0.098522 0.017129 0.000000
vn -0.098522 -0.017129 0.000000
vn -0.098522 -0.017129 0.000000
vn -0.096685 -0.025535 0.000000
vn -0.096685 -0.025535 0.000000
vn -0.094132 -0.033752 0.000000
vn -0.094132 -0.033752 0.000000
vn -0.090882 -0.041719 0.000000
vn -0.090882 -0.041719 0.000000
vn -0.086959 -0.049378 0.000000
vn -0.086959 -0.049378 0.000000
vn -0.082392 -0.056670 0.000000
vn -0.082392 -0.056670 0.000000
vn -0.077216 -0.063543 0.000000
vn -0.077216 -0.063543 0.000000
vn -0.071467 -0.069946 0.000000
vn -0.071467 -0.069946 0.000000
vn -0.065190 -0.075831 0.000000
vn -0.065190 -0.075831 0.000000
vn -0.058430 -0.081154 0.000000
vn -0.058430 -0.081154 0.000000
vn -0.051237 -0.085876 0.000000
vn -0.051237 -0.085876 0.000000
vn -0.043665 -0.089963 0.000000
vn -0.043665 -0.089963 0.000000
vn -0.035770 -0.093384 0.000000
vn -0.035770 -0.093384 0.000000
vn -0.027610 -0.096113 0.000000
vn -0.027610 -0.096113 0.000000
vn -0.019245 -0.098131 0.000000
vn -0.019245 -0.098131 0.000000
vn -0.010738 -0.099422 0.000000
vn -0.010738 -0.099422 0.000000
vn -0.002152 -0.099977 0.000000
vn -0.002152 -0.099977 0.000000
vn 0.006451 -0.099792 0.000000
vn 0.006451 -0.099792 0.000000
vn 0.015006 -0.098868 0.000000
vn 0.015006 -0.098868 0.000000
vn 0.023449 -0.097212 0.000000
vn 0.023449 -0.097212 0.000000
vn 0.031719 -0.094836 0.000000
vn 0.031719 -0.094836 0.000000
vn 0.039754 -0.091758 0.000000
vn 0.039754 -0.091758 0.000000
vn 0.047495 -0.088001 0.000000
vn 0.047495 -0.088001 0.000000
vn 0.054884 -0.083593 0.000000
vn 0.054884 -0.083593 0.000000
vn 0.061867 -0.078565 0.000000
vn 0.061867 -0.078565 0.000000
vn 0.068392 -0.072956 0.000000
vn 0.068392 -0.072956 0.000000
vn 0.074410 -0.066806 0.000000
vn 0.074410 -0.066806 0.000000
vn 0.079878 -0.060162 0.000000
vn 0.079878 -0.060162 0.000000
vn 0.084754 -0.053073 0.000000
vn 0.084754 -0.053073 0.000000
vn 0.089003 -0.045591 0.000000
vn 0.089003 -0.045591 0.000000
vn 0.092592 -0.037771 0.000000
vn 0.092592 -0.037771 0.000000
vn 0.095497 -0.029671 0.000000
vn 0.095497 -0.029671 0.000000
vn 0.097694 -0.021352 0.000000
vn 0.097694 -0.021352 0.000000
vn 0.099168 -0.012875 0.000000
vn 0.099168 -0.012875 0.000000
vn 0.099907 -0.004302 0.000000
vn 0.099907 -0.004302 0.000000
vn 0.099907 0.004302 0.000000
vn 0.099907 0.004302 0.000000
vn 0.099168 0.012875 0.000000
vn 0.099168 0.012875 0.000000
vn 0.097694 0.021352 0.000000
vn 0.097694 0.021352 0.000000
vn 0.095497 0.029671 0.000000
vn 0.095497 0.029671 0.000000
vn 0.092592 0.037771 0.000000
vn 0.092592 0.037771 0.000000
vn 0.089003 0.045591 0.000000
vn 0.089003 0.045591 0.000000
vn 0.084754 0.053073 0.000000
vn 0.084754 0.053073 0.000000
vn 0.079878 0.060162 0.000000
vn 0.079878 0.060162 0.000000
vn 0.074410 0.066806 0.000000
vn 0.074410 0.066806 0.000000
vn 0.068392 0.072956 0.000000
vn 0.068392 0.072956 0.000000
vn 0.061867 0.078565 0.000000
vn 0.061867 0.078565 0.000000
vn 0.054884 0.083593 0.000000
vn 0.054884 0.083593 0.000000
vn 0.047495 0.088001 0.000000
vn 0.047495 0.088001 0.000000
vn 0.039754 0.091758 0.000000
vn 0.039754 0.091758 0.000000
vn 0.031719 0.094836 0.000000
vn 0.031719 0.094836 0.000000
vn 0.023449 0.097212 0.000000
vn 0.023449 0.097212 0.000000
vn 0.015006 0.098868 0.000000
vn 0.015006 0.098868 0.000000
vn 0.006451 0.099792 0.000000
vn 0.006451 0.099792 0.000000
vn -0.002152 0.099977 0.000000
vn -0.002152 0.099977 0.000000
vn -0.010738 0.099422 0.000000
vn -0.010738 0.099422 0.000000
vn -0.019245 0.098131 0.000000
vn -0.019245 0.098131 0.000000
vn -0.027610 0.096113 0.000000
vn -0.027610 0.096113 0.000000
vn -0.035770 0.093384 0.000000
vn -0.035770 0.093384 0.000000
vn -0.043665 0.089963 0.000000
vn -0.043665 0.089963 0.000000
vn -0.051237 0.085876 0.000000
vn -0.051237 0.085876 0.000000
vn -0.058430 0.081154 0.000000
vn -0.058430 0.081154 0.000000
vn -0.065190 0.075831 0.000000
vn -0.065190 0.075831 0.000000
vn -0.071467 0.069946 0.000000
vn -0.071467 0.069946 0.000000
vn -0.077216 0.063543 0.000000
vn -0.077216 0.063543 0.000000
vn -0.082392 0.056670 0.000000
vn -0.082392 0.056670 0.000000
vn -0.086959 0.049378 0.000000
vn -0.086959 0.049378 0.000000
vn -0.090882 0.041719 0.000000
vn -0.090882 0.041719 0.000000
vn -0.094132 0.033752 0.000000
vn -0.094132 0.033752 0.000000
vn -0.096685 0.025535 0.000000
vn -0.096685 0.025535 0.000000
vn -0.098522 0.017129 0.000000
vn 0.000000 -0.100000 0.000000
vn 0.000000 -0.100000 0.000000
vn 0.000000 -0.100000 0.000000
vn 0.000000 -0.100000 0.000000
vn -0.100000 0.000000 0.000000
vn -0.100000 0.000000 0.000000
vn -0.100000 0.000000 0.000000
vn -0.100000 0.000000 0.000000
vn 0.000000 0.100000 0.000000
vn 0.000000 0.100000 0.000000
vn 0.000000 0.100000 0.000000
vn 0.000000 0.100000 0.000000
vn 0.100000 0.000000 0.000000
vn 0.100000 0.000000 0.000000
vn 0.100000 0.000000 0.000000
vn 0.100000 0.000000 0.000000
vn 0.000000 0.000000 0.100000
vn 0.000000 0.000000 0.100000
vn 0.000000 0.000000 0.100000
vn 0.000000 0.000000 0.100000
vn 0.000000 0.000000 0.100000
vn 0.000000 0.000000 0.100000
vn 0.000000 0.000000 0.100000
vn 0.000000 0.000000 0.100000
vn 0.000000 0.000000 0.100000
vn 0.000000 0.000000 0.100000
vn 0.000000 0.000000 0.100000
vn 0.000000 0.000000 0.100000
vn 0.000000 0.000000 0.100000
vn 0.000000 0.000000 0.100000
vn 0.000000 0.000000 0.100000
vn 0.000000 0.000000 0.100000
vn 0.000000 0.000000 0.100000
vn 0.000000 0.000000 0.100000
vn 0.000000 0.000000 0.100000
vn 0.000000 0.000000 0.100000
vn 0.000000 0.000000 0.100000
vn 0.000000 0.000000 0.100000
vn 0.000000 0.000000 0.100000
vn 0.000000 0.000000 0.100000
vn 0.000000 0.000000 0.100000
vn 0.000000 0.000000 0.100000
vn 0.000000 0.000000 0.100000
vn 0.000000 0.000000 0.100000
vn 0.000000 0.000000 0.100000
vn 0.000000 0.000000 0.100000
vn 0.000000 0.000000 0.100000
vn 0.000000 0.000000 0.100000
vn 0.000000 0.000000 0.100000
vn 0.000000 0.000000 0.100000
vn 0.000000 0.000000 0.100000
vn 0.000000 0.000000 0.100000
vn 0.000000 0.000000 0.100000
vn 0.000000 0.000000 0.100000
vn 0.000000 0.000000 0.100000
vn 0.000000 0.000000 0.100000
vn 0.000000 0.000000 0.100000
vn 0.000000 0.000000 0.100000
vn 0.000000 0.000000 0.100000
vn 0.000000 0.000000 0.100000
vn 0.000000 0.000000 0.100000
vn 0.000000 0.000000 0.100000
vn 0.000000 0.000000 0.100000
vn 0.000000 0.000000 0.100000
vn 0.000000 0.000000 0.100000
vn 0.000000 0.000000 0.100000
vn 0.000000 0.000000 0.100000
vn 0.000000 0.000000 0.100000
vn 0.000000 0.000000 0.100000
vn 0.000000 0.000000 0.100000
vn 0.000000 0.000000 0.100000
vn 0.000000 0.000000 0.100000
vn 0.000000 0.000000 0.100000
vn 0.000000 0.000000 0.100000
vn 0.000000 0.000000 0.100000
vn 0.000000 0.000000 0.100000
vn 0.000000 0.000000 0.100000
vn 0.000000 0.000000 0.100000
vn 0.000000 0.000000 0.100000
vn 0.000000 0.000000 0.100000
vn 0.000000 0.000000 0.100000
vn 0.000000 0.000000 0.100000
vn 0.000000 0.000000 0.100000
vn 0.000000 0.000000 0.100000
vn 0.000000 0.000000 0.100000
vn 0.000000 0.000000 0.100000
vn 0.000000 0.000000 0.100000
vn 0.000000 0.000000 0.100000
vn 0.000000 0.000000 0.100000
vn 0.000000 0.000000 0.100000
vn 0.000000 0.000000 0.100000
vn 0.000000 0.000000 0.100000
vn 0.000000 0.000000 0.100000
vn 0.000000 0.000000 -0.100000
vn 0.000000 0.000000 -0.100000
vn 0.000000 0.000000 -0.100000
vn 0.000000 0.000000 -0.100000
vn 0.000000 0.000000 -0.100000
vn 0.000000 0.000000 -0.100000
vn 0.000000 0.000000 -0.100000
vn 0.000000 0.000000 -0.100000
vn 0.000000 0.000000 -0.100000
vn 0.000000 0.000000 -0.100000
vn 0.000000 0.000000 -0.100000
vn 0.000000 0.000000 -0.100000
vn 0.000000 0.000000 -0.100000
vn 0.000000 0.000000 -0.100000
vn 0.000000 0.000000 -0.100000
vn 0.000000 0.000000 -0.100000
vn 0.000000 0.000000 -0.100000
vn 0.000000 0.000000 -0.100000
vn 0.000000 0.000000 -0.100000
vn 0.000000 0.000000 -0.100000
vn 0.000000 0.000000 -0.100000
vn 0.000000 0.000000 -0.100000
vn 0.000000 0.000000 -0.100000
vn 0.000000 0.000000 -0.100000
vn 0.000000 0.000000 -0.100000
vn 0.000000 0.000000 -0.100000
vn 0.000000 0.000000 -0.100000
vn 0.000000 0.000000 -0.100000
vn 0.000000 0.000000 -0.100000
vn 0.000000 0.000000 -0.100000
vn 0.000000 0.000000 -0.100000
vn 0.000000 0.000000 -0.100000
vn 0.000000 0.000000 -0.100000
vn 0.000000 0.000000 -0.100000
vn 0.000000 0.000000 -0.100000
vn 0.000000 0.000000 -0.100000
vn 0.000000 0.000000 -0.100000
vn 0.000000 0.000000 -0.100000
vn 0.000000 0.000000 -0.100000
vn 0.000000 0.000000 -0.100000
vn 0.000000 0.000000 -0.100000
vn 0.000000 0.000000 -0.100000
vn 0.000000 0.000000 -0.100000
vn 0.000000 0.000000 -0.100000
vn 0.000000 0.000000 -0.100000
vn 0.000000 0.000000 -0.100000
vn 0.000000 0.000000 -0.100000
vn 0.000000 0.000000 -0.100000
vn 0.000000 0.000000 -0.100000
vn 0.000000 0.000000 -0.100000
vn 0.000000 0.000000 -0.100000
vn 0.000000 0.000000 -0.100000
vn 0.000000 0.000000 -0.100000
vn 0.000000 0.000000 -0.100000
vn 0.000000 0.000000 -0.100000
vn 0.000000 0.000000 -0.100000
vn 0.000000 0.000000 -0.100000
vn 0.000000 0.000000 -0.100000
vn 0.000000 0.000000 -0.100000
vn 0.000000 0.000000 -0.100000
vn 0.000000 0.000000 -0.100000
vn 0.000000 0.000000 -0.100000
vn 0.000000 0.000000 -0.100000
vn 0.000000 0.000000 -0.100000
vn 0.000000 0.000000 -0.100000
vn 0.000000 0.000000 -0.100000
vn 0.000000 0.000000 -0.100000
vn 0.000000 0.000000 -0.100000
vn 0.000000 0.000000 -0.100000
vn 0.000000 0.000000 -0.100000
vn 0.000000 0.000000 -0.100000
vn 0.000000 0.000000 -0.100000
vn 0.000000 0.000000 -0.100000
vn 0.000000 0.000000 -0.100000
vn 0.000000 0.000000 -0.100000
vn 0.000000 0.000000 -0.100000
vn 0.000000 0.000000 -0.100000
usemtl Steel_-_Satin
f 2/1/1 146/2/2 1/3/3
f 1/3/3 146/2/2 74/4/4
f 1/3/3 74/4/4 73/5/5
f 73/5/5 74/4/4 75/6/6
f 73/5/5 75/6/6 76/7/7
f 2/1/1 3/8/8 146/2/2
f 146/2/2 3/8/8 145/9/9
f 145/9/9 3/8/8 4/10/10
f 145/9/9 4/10/10 144/11/11
f 144/11/11 4/10/10 5/12/12
f 144/11/11 5/12/12 143/13/13
f 143/13/13 5/12/12 6/14/14
f 143/13/13 6/14/14 142/15/15
f 142/15/15 6/14/14 7/16/16
f 142/15/15 7/16/16 141/17/17
f 141/17/17 7/16/16 8/18/18
f 141/17/17 8/18/18 140/19/19
f 140/19/19 8/18/18 9/20/20
f 140/19/19 9/20/20 139/21/21
f 139/21/21 9/20/20 10/22/22
f 139/21/21 10/22/22 138/23/23
f 138/23/23 10/22/22 11/24/24
f 138/23/23 11/24/24 137/25/25
f 137/25/25 11/24/24 12/26/26
f 137/25/25 12/26/26 136/27/27
f 136/27/27 12/26/26 13/28/28
f 136/27/27 13/28/28 135/29/29
f 135/29/29 13/28/28 14/30/30
f 135/29/29 14/30/30 134/31/31
f 134/31/31 14/30/30 15/32/32
f 134/31/31 15/32/32 133/33/33
f 133/33/33 15/32/32 16/34/34
f 133/33/33 16/34/34 132/35/35
f 132/35/35 16/34/34 17/36/36
f 132/35/35 17/36/36 131/37/37
f 131/37/37 17/36/36 18/38/38
f 131/37/37 18/38/38 130/39/39
f 130/39/39 18/38/38 19/40/40
f 130/39/39 19/40/40 129/41/41
f 129/41/41 19/40/40 20/42/42
f 129/41/41 20/42/42 128/43/43
f 128/43/43 20/42/42 21/44/44
f 128/43/43 21/44/44 127/45/45
f 127/45/45 21/44/44 22/46/46
f 127/45/45 22/46/46 126/47/47
f 126/47/47 22/46/46 23/48/48
f 126/47/47 23/48/48 125/49/49
f 125/49/49 23/48/48 24/50/50
f 125/49/49 24/50/50 124/51/51
f 124/51/51 24/50/50 25/52/52
f 124/51/51 25/52/52 123/53/53
f 123/53/53 25/52/52 26/54/54
f 123/53/53 26/54/54 122/55/55
f 122/55/55 26/54/54 27/56/56
f 122/55/55 27/56/56 121/57/57
f 121/57/57 27/56/56 28/58/58
f 121/57/57 28/58/58 120/59/59
f 120/59/59 28/58/58 29/60/60
f 120/59/59 29/60/60 119/61/61
f 119/61/61 29/60/60 30/62/62
f 119/61/61 30/62/62 118/63/63
f 118/63/63 30/62/62 31/64/64
f 118/63/63 31/64/64 117/65/65
f 117/65/65 31/64/64 32/66/66
f 117/65/65 32/66/66 116/67/67
f 116/67/67 32/66/66 33/68/68
f 116/67/67 33/68/68 115/69/69
f 115/69/69 33/68/68 34/70/70
f 115/69/69 34/70/70 114/71/71
f 114/71/71 34/70/70 35/72/72
f 114/71/71 35/72/72 113/73/73
f 113/73/73 35/72/72 36/74/74
f 113/73/73 36/74/74 112/75/75
f 112/75/75 36/74/74 37/76/76
f 112/75/75 37/76/76 111/77/77
f 111/77/77 37/76/76 38/78/78
f 111/77/77 38/78/78 110/79/79
f 110/80/79 38/81/78 39/82/80
f 110/80/79 39/82/80 109/83/81
f 109/83/81 39/82/80 40/84/82
f 109/83/81 40/84/82 108/85/83
f 108/85/83 40/84/82 41/86/84
f 108/85/83 41/86/84 107/87/85
f 107/87/85 41/86/84 42/88/86
f 107/87/85 42/88/86 106/89/87
f 106/89/87 42/88/86 43/90/88
f 106/89/87 43/90/88 105/91/89
f 105/91/89 43/90/88 44/92/90
f 105/91/89 44/92/90 104/93/91
f 104/93/91 44/92/90 45/94/92
f 104/93/91 45/94/92 103/95/93
f 103/95/93 45/94/92 46/96/94
f 103/95/93 46/96/94 102/97/95
f 102/97/95 46/96/94 47/98/96
f 102/97/95 47/98/96 101/99/97
f 101/99/97 47/98/96 48/100/98
f 101/99/97 48/100/98 100/101/99
f 100/101/99 48/100/98 49/102/100
f 100/101/99 49/102/100 99/103/101
f 99/103/101 49/102/100 50/104/102
f 99/103/101 50/104/102 98/105/103
f 98/105/103 50/104/102 51/106/104
f 98/105/103 51/106/104 97/107/105
f 97/107/105 51/106/104 52/108/106
f 97/107/105 52/108/106 96/109/107
f 96/109/107 52/108/106 53/110/108
f 96/109/107 53/110/108 95/111/109
f 95/111/109 53/110/108 54/112/110
f 95/111/109 54/112/110 94/113/111
f 94/113/111 54/112/110 55/114/112
f 94/113/111 55/114/112 93/115/113
f 93/115/113 55/114/112 56/116/114
f 93/115/113 56/116/114 92/117/115
f 92/117/115 56/116/114 57/118/116
f 92/117/115 57/118/116 91/119/117
f 91/119/117 57/118/116 58/120/118
f 91/119/117 58/120/118 90/121/119
f 90/121/119 58/120/118 59/122/120
f 90/121/119 59/122/120 89/123/121
f 89/123/121 59/122/120 60/124/122
f 89/123/121 60/124/122 88/125/123
f 88/125/123 60/124/122 61/126/124
f 88/125/123 61/126/124 87/127/125
f 87/127/125 61/126/124 62/128/126
f 87/127/125 62/128/126 86/129/127
f 86/129/127 62/128/126 63/130/128
f 86/129/127 63/130/128 85/131/129
f 85/131/129 63/130/128 64/132/130
f 85/131/129 64/132/130 84/133/131
f 84/133/131 64/132/130 65/134/132
f 84/133/131 65/134/132 83/135/133
f 83/135/133 65/134/132 66/136/134
f 83/135/133 66/136/134 82/137/135
f 82/137/135 66/136/134 67/138/136
f 82/137/135 67/138/136 81/139/137
f 81/139/137 67/138/136 68/140/138
f 81/139/137 68/140/138 80/141/139
f 80/141/139 68/140/138 69/142/140
f 80/141/139 69/142/140 79/143/141
f 79/143/141 69/142/140 70/144/142
f 79/143/141 70/144/142 78/145/143
f 78/145/143 70/144/142 71/146/144
f 78/145/143 71/146/144 77/147/145
f 77/147/145 71/146/144 72/148/146
f 77/147/145 72/148/146 76/7/7
f 76/7/7 72/148/146 73/5/5
f 147/149/147 148/150/148 150/151/149
f 150/151/149 148/150/148 149/152/150
f 151/153/151 147/154/152 152/155/153
f 152/155/153 147/154/152 150/156/154
f 153/157/155 151/158/156 154/159/157
f 154/159/157 151/158/156 152/160/158
f 148/161/159 153/162/160 149/163/161
f 149/163/161 153/162/160 154/164/162
f 2/165/163 1/166/164 149/167/165
f 149/167/165 1/166/164 73/168/166
f 149/167/165 73/168/166 72/169/167
f 72/169/167 71/170/168 149/167/165
f 149/167/165 71/170/168 70/171/169
f 149/167/165 70/171/169 69/172/170
f 69/172/170 68/173/171 149/167/165
f 149/167/165 68/173/171 67/174/172
f 149/167/165 67/174/172 66/175/173
f 66/175/173 65/176/174 149/167/165
f 149/167/165 65/176/174 64/177/175
f 149/167/165 64/177/175 63/178/176
f 63/178/176 62/179/177 149/167/165
f 149/167/165 62/179/177 61/180/178
f 149/167/165 61/180/178 60/181/179
f 60/181/179 59/182/180 149/167/165
f 149/167/165 59/182/180 58/183/181
f 149/167/165 58/183/181 57/184/182
f 57/184/182 56/185/183 149/167/165
f 149/167/165 56/185/183 150/186/184
f 150/186/184 56/185/183 55/187/185
f 150/186/184 55/187/185 54/188/186
f 54/188/186 53/189/187 150/186/184
f 150/186/184 53/189/187 52/190/188
f 150/186/184 52/190/188 51/191/189
f 51/191/189 50/192/190 150/186/184
f 150/186/184 50/192/190 49/193/191
f 150/186/184 49/193/191 48/194/192
f 48/194/192 47/195/193 150/186/184
f 150/186/184 47/195/193 46/196/194
f 150/186/184 46/196/194 45/197/195
f 45/197/195 44/198/196 150/186/184
f 150/186/184 44/198/196 43/199/197
f 150/186/184 43/199/197 42/200/198
f 42/200/198 41/201/199 150/186/184
f 150/186/184 41/201/199 40/202/200
f 150/186/184 40/202/200 39/203/201
f 39/203/201 38/204/202 150/186/184
f 150/186/184 38/204/202 37/205/203
f 150/186/184 37/205/203 36/206/204
f 150/186/184 36/206/204 152/207/205
f 152/207/205 36/206/204 35/208/206
f 152/207/205 35/208/206 34/209/207
f 34/209/207 33/210/208 152/207/205
f 152/207/205 33/210/208 32/211/209
f 152/207/205 32/211/209 31/212/210
f 31/212/210 30/213/211 152/207/205
f 152/207/205 30/213/211 29/214/212
f 152/207/205 29/214/212 28/215/213
f 28/215/213 27/216/214 152/207/205
f 152/207/205 27/216/214 26/217/215
f 152/207/205 26/217/215 25/218/216
f 25/218/216 24/219/217 152/207/205
f 152/207/205 24/219/217 23/220/218
f 152/207/205 23/220/218 22/221/219
f 22/221/219 21/222/220 152/207/205
f 152/207/205 21/222/220 20/223/221
f 152/207/205 20/223/221 19/224/222
f 152/207/205 19/224/222 154/225/223
f 154/225/223 19/224/222 18/226/224
f 154/225/223 18/226/224 17/227/225
f 17/227/225 16/228/226 154/225/223
f 154/225/223 16/228/226 15/229/227
f 154/225/223 15/229/227 14/230/228
f 14/230/228 13/231/229 154/225/223
f 154/225/223 13/231/229 12/232/230
f 154/225/223 12/232/230 11/233/231
f 11/233/231 10/234/232 154/225/223
f 154/225/223 10/234/232 9/235/233
f 154/225/223 9/235/233 8/236/234
f 8/236/234 7/237/235 154/225/223
f 154/225/223 7/237/235 6/238/236
f 154/225/223 6/238/236 5/239/237
f 5/239/237 4/240/238 154/225/223
f 154/225/223 4/240/238 3/241/239
f 154/225/223 3/241/239 149/167/165
f 149/167/165 3/241/239 2/165/163
f 75/242/240 74/243/241 148/244/242
f 148/244/242 74/243/241 146/245/243
f 148/244/242 146/245/243 145/246/244
f 148/244/242 145/246/244 153/247/245
f 153/247/245 145/246/244 144/248/246
f 153/247/245 144/248/246 143/249/247
f 143/249/247 142/250/248 153/247/245
f 153/247/245 142/250/248 141/251/249
f 153/247/245 141/251/249 140/252/250
f 140/252/250 139/253/251 153/247/245
f 153/247/245 139/253/251 138/254/252
f 153/247/245 138/254/252 137/255/253
f 137/255/253 136/256/254 153/247/245
f 153/247/245 136/256/254 135/257/255
f 153/247/245 135/257/255 134/258/256
f 134/258/256 133/259/257 153/247/245
f 153/247/245 133/259/257 132/260/258
f 153/247/245 132/260/258 131/261/259
f 131/261/259 130/262/260 153/247/245
f 153/247/245 130/262/260 129/263/261
f 153/247/245 129/263/261 151/264/262
f 151/264/262 129/263/261 128/265/263
f 151/264/262 128/265/263 127/266/264
f 127/266/264 126/267/265 151/264/262
f 151/264/262 126/267/265 125/268/266
f 151/264/262 125/268/266 124/269/267
f 124/269/267 123/270/268 151/264/262
f 151/264/262 123/270/268 122/271/269
f 151/264/262 122/271/269 121/272/270
f 121/272/270 120/273/271 151/264/262
f 151/264/262 120/273/271 119/274/272
f 151/264/262 119/274/272 118/275/273
f 118/275/273 117/276/274 151/264/262
f 151/264/262 117/276/274 116/277/275
f 151/264/262 116/277/275 115/278/276
f 115/278/276 114/279/277 151/264/262
f 151/264/262 114/279/277 113/280/278
f 151/264/262 113/280/278 112/281/279
f 151/264/262 112/281/279 147/282/280
f 147/282/280 112/281/279 111/283/281
f 147/282/280 111/283/281 110/284/282
f 110/284/282 109/285/283 147/282/280
f 147/282/280 109/285/283 108/286/284
f 147/282/280 108/286/284 107/287/285
f 107/287/285 106/288/286 147/282/280
f 147/282/280 106/288/286 105/289/287
f 147/282/280 105/289/287 104/290/288
f 104/290/288 103/291/289 147/282/280
f 147/282/280 103/291/289 102/292/290
f 147/282/280 102/292/290 101/293/291
f 101/293/291 100/294/292 147/282/280
f 147/282/280 100/294/292 99/295/293
f 147/282/280 99/295/293 98/296/294
f 98/296/294 97/297/295 147/282/280
f 147/282/280 97/297/295 96/298/296
f 147/282/280 96/298/296 95/299/297
f 95/299/297 94/300/298 147/282/280
f 147/282/280 94/300/298 93/301/299
f 147/282/280 93/301/299 92/302/300
f 147/282/280 92/302/300 148/244/242
f 148/244/242 92/302/300 91/303/301
f 148/244/242 91/303/301 90/304/302
f 90/304/302 89/305/303 148/244/242
f 148/244/242 89/305/303 88/306/304
f 148/244/242 88/306/304 87/307/305
f 87/307/305 86/308/306 148/244/242
f 148/244/242 86/308/306 85/309/307
f 148/244/242 85/309/307 84/310/308
f 84/310/308 83/311/309 148/244/242
f 148/244/242 83/311/309 82/312/310
f 148/244/242 82/312/310 81/313/311
f 81/313/311 80/314/312 148/244/242
f 148/244/242 80/314/312 79/315/313
f 148/244/242 79/315/313 78/316/314
f 78/316/314 77/317/315 148/244/242
f 148/244/242 77/317/315 76/318/316
f 148/244/242 76/318/316 75/242/240
# 154 vertices
# 318 texture params
# 316 normals
# 308 facets

# 1 groups
